<svg aria-hidden="true" style="position: absolute; width: 0; height: 0; overflow: hidden;" version="1.1" xmlns="http://www.w3.org/2000/svg" xmlns:xlink="http://www.w3.org/1999/xlink">
<defs>
<symbol id="arrow-down" viewBox="0 0 32 32"><path fill="var(currentColor, #00d7ff)" d="M16 22L2.144 10h27.713L16.001 22z"/></symbol>
<symbol id="arrow-up" viewBox="0 0 32 32"><path fill="var(currentColor, #00d7ff)" d="M16 9.333l13.857 12H2.144L16 9.333z"/></symbol>
<symbol id="star" viewBox="0 0 32 32">
<path fill="#00d7ff" style="fill: var(--color1, #00d7ff)" d="M30.608 11.163l-8.812-0.833c-0.556-0.050-1.036-0.404-1.263-0.934l-3.156-7.651c-0.505-1.263-2.298-1.263-2.803 0l-3.131 7.651c-0.202 0.53-0.707 0.884-1.263 0.934l-8.813 0.833c-1.313 0.126-1.843 1.768-0.859 2.651l6.641 5.833c0.429 0.379 0.606 0.934 0.48 1.49l-1.995 8.181c-0.303 1.288 1.086 2.348 2.247 1.667l7.348-4.318c0.48-0.278 1.061-0.278 1.54 0l7.348 4.318c1.162 0.681 2.55-0.354 2.247-1.667l-1.97-8.181c-0.126-0.556 0.051-1.111 0.48-1.49l6.641-5.833c0.96-0.884 0.404-2.525-0.909-2.651z"></path>
</symbol>
<symbol id="trophy" viewBox="0 0 32 32">
<path fill="#00d7ff" style="fill: var(--color1, #00d7ff)" d="M25.585 1.47h-2.613c0.009-0.289 0.015-0.581 0.015-0.873 0-0.33-0.267-0.597-0.596-0.597h-12.78c-0.33 0-0.597 0.267-0.597 0.597 0 0.293 0.005 0.584 0.015 0.873h-2.613c-0.33 0-0.597 0.267-0.597 0.597 0 2.673 0.699 5.195 1.967 7.102 1.254 1.885 2.924 2.966 4.728 3.071 0.409 0.445 0.842 0.808 1.292 1.085v2.652h-1.001c-1.21 0-2.194 0.984-2.194 2.194v1.001h-0.042c-0.329 0-0.597 0.267-0.597 0.596s0.267 0.597 0.597 0.597h10.863c0.33 0 0.597-0.267 0.597-0.597s-0.267-0.596-0.597-0.596h-0.042v-1.001c0-1.21-0.984-2.194-2.194-2.194h-1.001v-2.652c0.45-0.277 0.883-0.64 1.292-1.085 1.804-0.105 3.475-1.186 4.729-3.071 1.268-1.906 1.967-4.428 1.967-7.102 0-0.329-0.267-0.597-0.597-0.597zM8.779 8.507c-1.046-1.573-1.661-3.629-1.755-5.844h2.071c0.215 2.723 0.854 5.24 1.853 7.238 0.159 0.318 0.325 0.619 0.498 0.902-0.992-0.375-1.911-1.158-2.667-2.295zM23.221 8.507c-0.757 1.137-1.675 1.921-2.667 2.295 0.173-0.283 0.339-0.584 0.498-0.902 0.999-1.998 1.638-4.515 1.853-7.238h2.071c-0.094 2.215-0.708 4.272-1.755 5.844z"></path>
</symbol>
<symbol id="left-clouds" viewBox="0 0 37 32"><path fill="var(--color12, #eaeaea)" d="M2.291 16.906h5.227a.707.707 0 00-.517-.533.74.74 0 00-1.043-.847l.004-.002a1 1 0 00-.91-.587h-.001a.998.998 0 00-.934.647l-.002.007a.757.757 0 00-.423-.128h-.006a.777.777 0 00-.769.891l-.001-.004a.716.716 0 00-.626.556zM0 6.012h5.67a.766.766 0 00-.559-.578l-.005-.001a.84.84 0 00.023-.195v-.001a.8.8 0 00-.8-.8h-.001a.755.755 0 00-.35.082 1.081 1.081 0 00-1.996.066l-.002.007a.844.844 0 00-.461-.136h-.002-.001a.842.842 0 00-.843.843V5.3c0 .039.004.082.008.121a.755.755 0 00-.68.586L0 6.012zM.552 30.49h4.352a.59.59 0 00-.428-.442l-.004-.001a.616.616 0 00-.594-.766.614.614 0 00-.268.062.832.832 0 00-.756-.486h-.002-.001a.827.827 0 00-.775.539l-.002.006a.634.634 0 00-.351-.105h-.004a.644.644 0 00-.644.644v.002a.73.73 0 00.008.093.59.59 0 00-.528.451l-.001.004zM12.289 2.073h5.518a.753.753 0 00-.543-.563l-.005-.001a.778.778 0 00-.754-.969h-.001a.783.783 0 00-.342.078 1.053 1.053 0 00-1.946.062l-.002.007a.805.805 0 00-.45-.136h-.001-.001a.82.82 0 00-.812.942l-.001-.004a.743.743 0 00-.661.583zM9.773 27.239h6.841a.928.928 0 00-.674-.699l-.006-.001a.964.964 0 00-.933-1.201.97.97 0 00-.424.097 1.31 1.31 0 00-1.19-.766h-.003a1.3 1.3 0 00-1.219.847l-.003.009a1.015 1.015 0 00-1.571.848.84.84 0 00.012.144.934.934 0 00-.828.723z"/></symbol>
<symbol id="right-clouds" viewBox="0 0 37 32"><path fill="var(--color12, #eaeaea)" d="M31.283 14.903h4.947a.672.672 0 00-.485-.505l-.005-.001a.646.646 0 00.019-.171v-.001a.7.7 0 00-.7-.7h-.001a.74.74 0 00-.312.072l.004-.002a.947.947 0 00-.859-.556h-.002a.943.943 0 00-.883.612l-.002.007a.717.717 0 00-.398-.121h-.007a.737.737 0 00-.735.735c0 .035.004.07.008.105a.67.67 0 00-.59.52l-.001.004zm-.638-12.017h6.226a.846.846 0 00-.612-.633l-.006-.001a.94.94 0 00.027-.213v-.001-.001a.878.878 0 00-.878-.878h-.001a.855.855 0 00-.385.089 1.188 1.188 0 00-2.195.069l-.003.008a.891.891 0 00-.5-.151h-.006a.928.928 0 00-.926.926c0 .043.004.089.008.132a.832.832 0 00-.749.648l-.001.006zm2.174 26.309h4.352a.591.591 0 00-.427-.442l-.004-.001a.615.615 0 00-.595-.766.614.614 0 00-.268.062.832.832 0 00-.756-.486h-.003a.83.83 0 00-.776.539l-.002.006a.635.635 0 00-.352-.105h-.002-.001a.644.644 0 00-.644.644v.001a.73.73 0 00.008.093.576.576 0 00-.528.451l-.001.004zm-11.752-1.12h5.736a.781.781 0 00-.562-.586l-.005-.001a.84.84 0 00.023-.198v-.001a.808.808 0 00-1.167-.724l.005-.002a1.09 1.09 0 00-.993-.642h-.007c-.468 0-.868.294-1.024.708l-.003.008a.852.852 0 00-1.319.712c0 .043.004.082.008.121a.78.78 0 00-.691.602l-.001.005z"/></symbol>
<symbol id="target" viewBox="0 0 35 32"><path fill="var(--color11, #00d7ff)" d="M15.907 29.735c7.514 0 13.605-6.091 13.605-13.605S23.421 2.525 15.907 2.525 2.302 8.616 2.302 16.13s6.092 13.605 13.605 13.605z"/><path fill="var(--color10, #fff)" d="M23.782 24.002c4.348-4.348 4.348-11.397 0-15.745s-11.398-4.348-15.745 0c-4.348 4.348-4.348 11.398 0 15.746s11.397 4.348 15.745 0z"/><path fill="var(--color11, #00d7ff)" d="M15.907 24.575a8.445 8.445 0 100-16.89 8.445 8.445 0 000 16.89z"/><path fill="var(--color10, #fff)" d="M20.244 20.464a6.13 6.13 0 10-8.67-8.67 6.13 6.13 0 008.67 8.67z"/><path fill="var(--color11, #00d7ff)" d="M19.149 17.829a3.659 3.659 0 00-6.471-3.418l-.01.02a3.659 3.659 0 006.472 3.418l.01-.02z"/><path fill="var(--color10, #fff)" d="M16.145 18.106a1.989 1.989 0 10-.48-3.949l.01-.001a1.989 1.989 0 10.48 3.949l-.01.001z"/></symbol>
<symbol id="first" viewBox="0 0 29 32"><path d="M9.987 28.648l.061.013 2.976-3.246 1.734 4.051.059.003 2.181-12.831-4.828-.813-2.184 12.822z"/><path d="M25.364 24.428l-.047.042-4.216-1.272.577 4.369-.049.033-8.427-9.919 3.737-3.163 8.423 9.91z"/><path d="M21.148 17.899a7.972 7.972 0 00-2.985-10.873 7.973 7.973 0 102.984 10.873z"/><path fill="var(--color11, #00d7ff)" d="M20.464 12.239a6.475 6.475 0 11-7.957-4.53c3.445-.936 7.012 1.087 7.957 4.529z"/><path d="M16.457 17.497l-1.699.466-1.555-5.665-.65.179-.31-1.129c.244-.067.422-.232.537-.488s.139-.485.081-.693l1.473-.404 2.123 7.734z"/></symbol><symbol id="icon-left-clouds" viewBox="0 0 37 32"><path fill="var(--color12, #eaeaea)" d="M2.291 16.906h5.227a.707.707 0 00-.517-.533.74.74 0 00-1.043-.847l.004-.002a1 1 0 00-.91-.587h-.001a.998.998 0 00-.934.647l-.002.007a.757.757 0 00-.423-.128h-.006a.777.777 0 00-.769.891l-.001-.004a.716.716 0 00-.626.556zM0 6.012h5.67a.766.766 0 00-.559-.578l-.005-.001a.84.84 0 00.023-.195v-.001a.8.8 0 00-.8-.8h-.001a.755.755 0 00-.35.082 1.081 1.081 0 00-1.996.066l-.002.007a.844.844 0 00-.461-.136h-.002-.001a.842.842 0 00-.843.843V5.3c0 .039.004.082.008.121a.755.755 0 00-.68.586L0 6.012zM.552 30.49h4.352a.59.59 0 00-.428-.442l-.004-.001a.616.616 0 00-.594-.766.614.614 0 00-.268.062.832.832 0 00-.756-.486h-.002-.001a.827.827 0 00-.775.539l-.002.006a.634.634 0 00-.351-.105h-.004a.644.644 0 00-.644.644v.002a.73.73 0 00.008.093.59.59 0 00-.528.451l-.001.004zM12.289 2.073h5.518a.753.753 0 00-.543-.563l-.005-.001a.778.778 0 00-.754-.969h-.001a.783.783 0 00-.342.078 1.053 1.053 0 00-1.946.062l-.002.007a.805.805 0 00-.45-.136h-.001-.001a.82.82 0 00-.812.942l-.001-.004a.743.743 0 00-.661.583zM9.773 27.239h6.841a.928.928 0 00-.674-.699l-.006-.001a.964.964 0 00-.933-1.201.97.97 0 00-.424.097 1.31 1.31 0 00-1.19-.766h-.003a1.3 1.3 0 00-1.219.847l-.003.009a1.015 1.015 0 00-1.571.848.84.84 0 00.012.144.934.934 0 00-.828.723z"/></symbol>
<symbol id="base" viewBox="0 0 63 32"><path fill="var(--color3, #d67412)" d="M33.417 27.843c-.931.603-2.257.603-3.189 0L5.787 12.039c-1.841-1.184-.778-3.551 1.589-3.551h48.881c2.367 0 3.431 2.356 1.589 3.551l-24.43 15.804z"/><path fill="var(--color4, #fc842c)" d="M24.879 27.415c-.176.208-.449.208-.625 0l-5.392-6.488-4.953-5.94c-.274-.34-.087-.91.307-.91h20.736c.394 0 .592.581.307.909l-4.954 5.941-5.425 6.488z"/><path fill="var(--color4, #fc842c)" d="M38.305 27.832a.421.421 0 01-.68 0l-5.962-7.146-5.458-6.554c-.307-.372-.087-1.008.34-1.008h22.841c.439 0 .647.636.34 1.008l-5.458 6.554-5.962 7.146z"/><path fill="var(--color4, #fc842c)" d="M31.718 31.624c-.153.186-.394.186-.548 0l-4.79-5.743-4.395-5.26c-.252-.296-.076-.812.274-.812h18.369c.351 0 .526.516.274.812l-4.395 5.26-4.79 5.743z"/><path fill="var(--color5, #f99943)" d="M42.295 15.37h-2.62c-.307 0-.559-.285-.559-.636s.252-.636.559-.636h2.62c.307 0 .559.285.559.636s-.252.636-.559.636zm1.741 0h-.372c-.307 0-.559-.285-.559-.636s.252-.636.559-.636h.373c.307 0 .559.285.559.636s-.252.636-.559.636zm-12.778 2.006h-3.091c-.362 0-.658-.329-.658-.745s.296-.745.658-.745h3.091c.361 0 .657.329.657.745s-.296.745-.658.745zm2.061 0h-.439c-.362 0-.657-.329-.657-.745s.295-.745.657-.745h.438c.362 0 .658.329.658.745s-.296.745-.657.745zm-1.656 9.974h-1.787c-.209 0-.384-.198-.384-.428s.175-.428.384-.428h1.786c.208 0 .383.197.383.428s-.164.428-.383.428zm1.195 0h-.252c-.208 0-.383-.198-.383-.428s.175-.428.383-.428h.252c.209 0 .384.197.384.428s-.164.428-.384.428zM22.347 16.74c0 .526-.372.943-.844.943H18.96c-.46 0-.844-.428-.844-.943 0-.526.372-.943.844-.943h2.543c.471 0 .844.417.844.943z"/><path fill="var(--color5, #f99943)" d="M24.243 18.1c0 .526-.372.943-.844.943h-2.543c-.46 0-.844-.428-.844-.943 0-.527.372-.943.844-.943h2.543c.471 0 .844.416.844.943zm14.654.755c0-.405-.296-.745-.657-.745h-2.007c-.361 0-.657.329-.657.745 0 .406.296.745.657.745h2.006c.361 0 .657-.329.657-.745z"/><path fill="var(--color5, #f99943)" d="M40.387 17.793c0-.406-.295-.745-.657-.745h-1.994c-.362 0-.658.329-.658.745 0 .405.296.745.658.745h1.994c.362-.011.657-.34.657-.745zm-.811 3.627c-.438 0-.8.405-.8.899 0 .142.033.273.087.394h-.525c-.439 0-.8.406-.8.899 0 .504.361.899.8.899h2.707l2.597-3.113h-4.065v.022zm-15.53.647h-.526a.927.927 0 00.087-.395c0-.504-.361-.898-.8-.898H18.73l.132.164 2.455 2.948h2.729c.439 0 .8-.406.8-.899 0-.515-.361-.921-.8-.921zm8.385-1.129c0 .471-.34.844-.756.844h-3.507c-.417 0-.756-.383-.756-.844 0-.471.34-.844.756-.844h3.507c.428 0 .756.372.756.844zm-1.382 1.337c0-.273.197-.493.439-.493h-1.665c.24 0 .438.22.438.493s-.197.493-.439.493h1.665c-.252 0-.438-.218-.438-.493zm2.992 1.238c0 .417-.296.745-.657.745h-4.155c-.361 0-.657-.329-.657-.745s.296-.745.657-.745h4.154c.361 0 .657.34.657.745z"/><path fill="var(--color6, #bc5800)" d="M62.406 3.194a.52.52 0 00-.449-.285H1.688a.518.518 0 00-.449.285.636.636 0 00-.009.584l-.002-.004 3.935 8.264a.506.506 0 00.46.307h52.41a.513.513 0 00.459-.304l.001-.003 3.935-8.264a.712.712 0 00-.024-.585l.002.004z"/><path fill="var(--color7, #aa5000)" d="M15.42 10.691h-5.085c-.603 0-1.085-.548-1.085-1.228s.482-1.228 1.085-1.228h5.085c.604 0 1.085.548 1.085 1.228s-.482 1.227-1.085 1.227zm3.387 0h-.724c-.603 0-1.085-.548-1.085-1.228s.482-1.228 1.085-1.228h.724c.603 0 1.085.548 1.085 1.228s-.482 1.227-1.085 1.227zm28.737-2.346h4.647c.548 0 .997.505.997 1.118s-.449 1.119-.997 1.119h-4.647c-.548 0-.997-.505-.997-1.118s.449-1.119.997-1.119zm-3.102 0h.669c.548 0 .997.505.997 1.118s-.449 1.119-.997 1.119h-.669c-.548 0-.996-.505-.996-1.118s.449-1.119.996-1.119zm-11.003.307c0 .669-.482 1.217-1.074 1.217h-3.014c-.592 0-1.074-.548-1.074-1.217s.482-1.216 1.074-1.216h3.014c.592 0 1.074.548 1.074 1.216z"/><path fill="var(--color7, #aa5000)" d="M36.354 9.989c0 .691-.505 1.26-1.118 1.26h-3.08c-.614 0-1.118-.559-1.118-1.26 0-.691.504-1.26 1.118-1.26h3.08c.613 0 1.118.57 1.118 1.26z"/><path fill="var(--color8, #dfdfdf)" d="M62.636 6.12c0 .252-.175.449-.405.449H.724c-.22 0-.406-.197-.406-.449V1.068c0-.252.175-.449.406-.449h61.507c.219 0 .406.197.406.449V6.12z"/><path fill="var(--color9, #c3c3c3)" d="M62.231.618h-.417v4.68c0 .252-.175.449-.405.449H.318v.383c0 .252.175.449.406.449h61.507c.219 0 .406-.197.406-.449V1.078c0-.263-.187-.46-.406-.46z"/><path fill="var(--color10, #fff)" d="M6.182 3.271H3.331c-.34 0-.614-.307-.614-.691s.274-.69.614-.69h2.851c.34 0 .614.307.614.691s-.274.69-.614.69zm1.907 0h-.406c-.34 0-.614-.307-.614-.691s.274-.69.614-.69h.406c.34 0 .614.307.614.691-.012.383-.285.69-.614.69z"/></symbol><symbol id="icon-first" viewBox="0 0 29 32"><path d="M9.987 28.648l.061.013 2.976-3.246 1.734 4.051.059.003 2.181-12.831-4.828-.813-2.184 12.822z"/><path d="M25.364 24.428l-.047.042-4.216-1.272.577 4.369-.049.033-8.427-9.919 3.737-3.163 8.423 9.91z"/><path d="M21.148 17.899a7.972 7.972 0 00-2.985-10.873 7.973 7.973 0 102.984 10.873z"/><path fill="var(--color11, #00d7ff)" d="M20.464 12.239a6.475 6.475 0 11-7.957-4.53c3.445-.936 7.012 1.087 7.957 4.529z"/><path d="M16.457 17.497l-1.699.466-1.555-5.665-.65.179-.31-1.129c.244-.067.422-.232.537-.488s.139-.485.081-.693l1.473-.404 2.123 7.734z"/></symbol>
<symbol id="arrow" viewBox="0 0 53 32"><path fill="var(--color1, #ff7b00)" d="M23.081 20.356L26.19 8.051 44.874.055 41.063 11.8l11.154 5.07-18.294 8.587-10.843-5.102z"/><path fill="var(--color2, #ff9557)" d="M2.267 31.37a2.42 2.42 0 01-1.395-1.293l-.006-.015a2.44 2.44 0 011.213-3.213l.015-.006L42.76 8.642c1.228-.544 2.676 0 3.22 1.228.544 1.229 0 2.677-1.228 3.221L4.087 31.292a2.398 2.398 0 01-1.837.072l.017.005z"/></symbol>
<symbol id="trophy-cup" viewBox="0 0 33 32"><path fill="var(--color11, #00d7ff)" d="M17.871 26.545h-3.019l-.075-10.077 3.018.006.075 10.071z"/><path fill="var(--color11, #00d7ff)" d="M16.287 24.585l-4.948 5.317 9.97.019-5.023-5.336-4.948 5.317 9.97.019-5.023-5.336zm-6.695-7.791c-.388-.025-9.488-.657-9.531-7.346-.012-1.685.457-3.05 1.396-4.064C3.612 3.048 7.495 3.555 7.664 3.58l-.169 1.947c-.031-.006-3.332-.426-4.948 1.322-.583.639-.864 1.484-.858 2.599.032 4.829 7.897 5.38 7.973 5.38l-.069 1.967zm13.565.019c.388-.025 9.475-.626 9.432-7.315-.012-1.684-.501-3.056-1.453-4.071-2.186-2.342-6.063-1.848-6.232-1.829l.195 1.954c.031-.006 3.326-.42 4.966 1.34.595.639.889 1.491.896 2.606.031 4.828-7.822 5.354-7.897 5.354l.094 1.96z"/><path fill="var(--color11, #00d7ff)" d="M5.233.191a.647.647 0 00-.645.62c-.012.369-.012.745-.012 1.121.075 11.179 5.392 20.248 11.88 20.26S28.142 13.149 28.067 1.97c0-.382-.012-.758-.025-1.127a.637.637 0 00-.636-.614h-.003L5.233.192z"/><path fill="var(--color10, #fff)" d="M8.959 13.719h-.002a.763.763 0 01-.697-.452l-.002-.005c-1.021-2.348-1.641-5.11-1.797-7.998l-.001-.043a.76.76 0 01.72-.758h.002l.044-.001a.76.76 0 01.758.719v.002c.144 2.705.726 5.292 1.672 7.478a.76.76 0 01-.395 1.002.784.784 0 01-.296.057H8.96zM7.2 4.068h-.019a.759.759 0 01-.746-.758v-.02.001l.019-.657a.772.772 0 01.771-.733h.025-.001a.772.772 0 01.733.771v.026-.001c-.012.219-.019.42-.019.62a.768.768 0 01-.764.751z"/><path fill="var(--color11, #00d7ff)" d="M22.587 31.819c0 .062-.05.119-.112.119H10.174c-.062 0-.113-.05-.113-.119V29.99c0-.063.05-.119.113-.119H22.48c.063 0 .113.05.113.119v1.829h-.006z"/></symbol>
<symbol id="arrow-right" viewBox="0 0 32 32"><path d="M21.548 27.085a1.119 1.119 0 01-1.613 0 1.17 1.17 0 010-1.622l8.177-8.307H1.128c-.629-.001-1.129-.509-1.129-1.148s.5-1.163 1.129-1.163h26.984l-8.177-8.291c-.436-.458-.436-1.196 0-1.638a1.119 1.119 0 011.613 0l10.113 10.273c.451.443.451 1.18 0 1.622L21.548 27.085z"/></symbol>
<symbol id="icon-logout" viewBox="0 0 41 32">
<path d="M34.324 14.899h-21.396c-1.020 0-1.847 0.827-1.847 1.847s0.827 1.847 1.847 1.847h21.396l-2.388 2.388c-0.721 0.721-0.721 1.89 0 2.612s1.89 0.721 2.612-0l5.54-5.54c0.043-0.043 0.083-0.087 0.122-0.134 0.009-0.011 0.017-0.024 0.027-0.035 0.028-0.036 0.056-0.072 0.081-0.11 0.007-0.011 0.013-0.023 0.021-0.034 0.025-0.040 0.050-0.080 0.072-0.121 0.004-0.008 0.008-0.017 0.012-0.025 0.023-0.045 0.046-0.091 0.065-0.138 0.002-0.006 0.004-0.012 0.007-0.018 0.020-0.050 0.039-0.1 0.054-0.152 0.002-0.006 0.003-0.013 0.005-0.020 0.015-0.051 0.029-0.102 0.039-0.155 0.003-0.016 0.004-0.032 0.007-0.047 0.008-0.044 0.015-0.087 0.020-0.132 0.006-0.061 0.009-0.122 0.009-0.184s-0.003-0.123-0.009-0.184c-0.004-0.045-0.012-0.089-0.020-0.133-0.003-0.015-0.004-0.031-0.007-0.046-0.011-0.053-0.024-0.105-0.039-0.156-0.002-0.006-0.003-0.012-0.005-0.018-0.016-0.052-0.034-0.103-0.055-0.153-0.002-0.005-0.004-0.011-0.006-0.017-0.020-0.048-0.042-0.094-0.066-0.139-0.004-0.008-0.008-0.016-0.012-0.024-0.023-0.042-0.048-0.082-0.073-0.122-0.007-0.011-0.013-0.022-0.020-0.033-0.025-0.038-0.053-0.074-0.081-0.11-0.009-0.012-0.017-0.024-0.026-0.035-0.039-0.047-0.079-0.091-0.122-0.134l-5.54-5.54c-0.361-0.361-0.833-0.541-1.306-0.541s-0.945 0.18-1.306 0.541c-0.721 0.721-0.721 1.89 0 2.612l2.388 2.388z"></path>
<path d="M15.107 31.853c5.041 0 9.731-2.501 12.546-6.689 0.569-0.846 0.344-1.994-0.503-2.563s-1.994-0.344-2.563 0.503c-2.127 3.166-5.672 5.056-9.48 5.056-6.293-0-11.413-5.12-11.413-11.413s5.12-11.413 11.413-11.413c3.798 0 7.336 1.882 9.465 5.033 0.571 0.845 1.719 1.067 2.564 0.496s1.067-1.719 0.496-2.564c-2.817-4.17-7.499-6.659-12.526-6.659-8.33 0-15.107 6.777-15.107 15.107s6.777 15.107 15.107 15.107z"></path>
</symbol>
<symbol id="challenge-icon" viewBox="0 0 32 32">
<path d="M26.435 16c0 5.763-4.672 10.435-10.435 10.435s-10.435-4.672-10.435-10.435c0-5.763 4.672-10.435 10.435-10.435s10.435 4.672 10.435 10.435z"></path>
<path fill="#242a37" style="fill: var(--color2, #242a37)" d="M20.584 11.833h-1.25c0.005-0.138 0.007-0.278 0.007-0.418 0-0.158-0.128-0.285-0.285-0.285h-6.112c-0.158 0-0.285 0.128-0.285 0.285 0 0.14 0.002 0.279 0.007 0.418h-1.25c-0.158 0-0.285 0.128-0.285 0.285 0 1.278 0.334 2.485 0.941 3.396 0.6 0.901 1.399 1.418 2.261 1.469 0.196 0.213 0.402 0.387 0.618 0.519v1.268h-0.479c-0.579 0-1.049 0.471-1.049 1.049v0.479h-0.020c-0.158 0-0.285 0.128-0.285 0.285s0.128 0.285 0.285 0.285h5.195c0.158 0 0.285-0.128 0.285-0.285s-0.128-0.285-0.285-0.285h-0.020v-0.479c0-0.579-0.471-1.049-1.049-1.049h-0.479v-1.268c0.215-0.132 0.422-0.306 0.618-0.519 0.863-0.050 1.662-0.567 2.262-1.469 0.607-0.912 0.941-2.118 0.941-3.396 0-0.158-0.128-0.285-0.285-0.285zM12.546 15.199c-0.5-0.752-0.794-1.736-0.839-2.795h0.99c0.103 1.302 0.409 2.506 0.886 3.461 0.076 0.152 0.156 0.296 0.238 0.431-0.475-0.179-0.914-0.554-1.276-1.098zM19.454 15.199c-0.362 0.544-0.801 0.919-1.276 1.098 0.083-0.136 0.162-0.279 0.238-0.431 0.478-0.956 0.783-2.159 0.886-3.461h0.99c-0.045 1.059-0.339 2.043-0.839 2.795z"></path>
</symbol>
<symbol id="challenge-icon-reverse" viewBox="0 0 32 32">
<path fill="#242a37" style="fill: var(--color2, #242a37)" d="M26.435 16c0 5.763-4.672 10.435-10.435 10.435s-10.435-4.672-10.435-10.435c0-5.763 4.672-10.435 10.435-10.435s10.435 4.672 10.435 10.435z"></path>
<path d="M20.584 11.833h-1.25c0.005-0.138 0.007-0.278 0.007-0.418 0-0.158-0.128-0.285-0.285-0.285h-6.112c-0.158 0-0.285 0.128-0.285 0.285 0 0.14 0.002 0.279 0.007 0.418h-1.25c-0.158 0-0.285 0.128-0.285 0.285 0 1.278 0.334 2.485 0.941 3.396 0.6 0.901 1.399 1.418 2.261 1.469 0.196 0.213 0.402 0.387 0.618 0.519v1.268h-0.479c-0.579 0-1.049 0.471-1.049 1.049v0.479h-0.020c-0.158 0-0.285 0.128-0.285 0.285s0.128 0.285 0.285 0.285h5.195c0.158 0 0.285-0.128 0.285-0.285s-0.128-0.285-0.285-0.285h-0.020v-0.479c0-0.579-0.471-1.049-1.049-1.049h-0.479v-1.268c0.215-0.132 0.422-0.306 0.618-0.519 0.863-0.050 1.662-0.567 2.262-1.469 0.607-0.912 0.941-2.118 0.941-3.396 0-0.158-0.128-0.285-0.285-0.285zM12.546 15.199c-0.5-0.752-0.794-1.736-0.839-2.795h0.99c0.103 1.302 0.409 2.506 0.886 3.461 0.076 0.152 0.156 0.296 0.238 0.431-0.475-0.179-0.914-0.554-1.276-1.098zM19.454 15.199c-0.362 0.544-0.801 0.919-1.276 1.098 0.083-0.136 0.162-0.279 0.238-0.431 0.478-0.956 0.783-2.159 0.886-3.461h0.99c-0.045 1.059-0.339 2.043-0.839 2.795z"></path>
</symbol>
<symbol id="icon-trophy" viewBox="0 0 32 32">
<path d="M25.585 1.47h-2.613c0.009-0.289 0.015-0.581 0.015-0.873 0-0.33-0.267-0.597-0.596-0.597h-12.78c-0.33 0-0.597 0.267-0.597 0.597 0 0.293 0.005 0.584 0.015 0.873h-2.613c-0.33 0-0.597 0.267-0.597 0.597 0 2.673 0.699 5.195 1.967 7.102 1.254 1.885 2.924 2.966 4.728 3.071 0.409 0.445 0.842 0.808 1.292 1.085v2.652h-1.001c-1.21 0-2.194 0.984-2.194 2.194v1.001h-0.042c-0.329 0-0.597 0.267-0.597 0.596s0.267 0.597 0.597 0.597h10.863c0.33 0 0.597-0.267 0.597-0.597s-0.267-0.596-0.597-0.596h-0.042v-1.001c0-1.21-0.984-2.194-2.194-2.194h-1.001v-2.652c0.45-0.277 0.883-0.64 1.292-1.085 1.804-0.105 3.475-1.186 4.729-3.071 1.268-1.906 1.967-4.428 1.967-7.102 0-0.329-0.267-0.597-0.597-0.597zM8.779 8.507c-1.046-1.573-1.661-3.629-1.755-5.844h2.071c0.215 2.723 0.854 5.24 1.853 7.238 0.159 0.318 0.325 0.619 0.498 0.902-0.992-0.375-1.911-1.158-2.667-2.295zM23.221 8.507c-0.757 1.137-1.675 1.921-2.667 2.295 0.173-0.283 0.339-0.584 0.498-0.902 0.999-1.998 1.638-4.515 1.853-7.238h2.071c-0.094 2.215-0.708 4.272-1.755 5.844z"></path>
</symbol>
<symbol id="icon-star" viewBox="0 0 32 32">
<path d="M30.608 11.164l-8.812-0.833c-0.556-0.050-1.036-0.404-1.263-0.934l-3.156-7.651c-0.505-1.263-2.298-1.263-2.803 0l-3.131 7.651c-0.202 0.53-0.707 0.884-1.263 0.934l-8.813 0.833c-1.313 0.126-1.843 1.768-0.859 2.651l6.641 5.833c0.429 0.379 0.606 0.934 0.48 1.49l-1.995 8.181c-0.303 1.288 1.086 2.348 2.247 1.667l7.348-4.318c0.48-0.278 1.061-0.278 1.54 0l7.348 4.318c1.162 0.682 2.55-0.354 2.247-1.667l-1.97-8.181c-0.126-0.555 0.051-1.111 0.48-1.49l6.641-5.833c0.96-0.884 0.404-2.525-0.909-2.651z"></path>
</symbol>
</defs>
</svg>