<?xml version="1.0" standalone="no"?>
  <!DOCTYPE svg PUBLIC "-//W3C//DTD SVG 1.1//EN" "http://www.w3.org/Graphics/SVG/1.1/DTD/svg11.dtd" >
  <svg>
  <metadata>
  Created by font-carrier
  </metadata>
  <defs>
  <font id="HelveticaNeueCyr-Bold" horiz-adv-x="1147" vert-adv-y="1147" >
    <font-face
      
      font-family="HelveticaNeueCyr"
      
      font-weight="400"
      
      font-stretch="normal"
      
      units-per-em="1000"
      
      ascent="714"
      
      descent="-198"
      
    />
      <missing-glyph />

      

      
      <glyph glyph-name="uni21" unicode="&#x21;" d="M213 712L213 522L174 217L103 217L64 520L64 712L213 712M216 153L216 0L61 0L61 153L216 153Z"  horiz-adv-x="278" vert-adv-y="1000"  />

      
      <glyph glyph-name="uni22" unicode="&#x22;" d="M178 401L109 401L90 694L196 694L178 401M354 401L286 401L267 694L373 694L354 401Z"  horiz-adv-x="463" vert-adv-y="1000"  />

      
      <glyph glyph-name="uni23" unicode="&#x23;" d="M157 0L55 0L92 192L3 192L3 276L108 276L134 417L46 417L46 502L150 502L187 694L289 694L252 502L361 502L398 694L500 694L463 502L552 502L552 417L447 417L421 276L509 276L509 192L405 192L368 0L266 0L303 192L193 192L157 0M319 276L345 417L236 417L210 276L319 276Z"  horiz-adv-x="556" vert-adv-y="1000"  />

      
      <glyph glyph-name="uni24" unicode="&#x24;" d="M304 789L304 713Q411 711 472.50 659Q534 607 534 519L534 505L401 505L401 512Q401 601 304 612L304 419L310 418Q361 410 401 396.50Q441 383 478 359Q515 335 535.50 295.50Q556 256 556 204Q556 106 486.50 45.50Q417-15 304-17L304-101L250-101L250-17Q137-15 65.50 45.50Q-6 106-6 217L-5 223L137 223L137 214Q137 100 250 91L250 304Q201 312 163.50 325Q126 338 90 360Q54 382 35 419Q16 456 16 506Q16 605 81.50 655.50Q147 706 250 713L250 789L304 789M250 431L250 611Q202 609 175 585Q148 561 148 522Q148 504 154.50 489.50Q161 475 168.50 466.50Q176 458 193 450.50Q210 443 219 440Q228 437 250 431M304 292L304 90Q354 91 384.50 119.50Q415 148 415 193Q415 270 304 292Z"  horiz-adv-x="556" vert-adv-y="1000"  />

      
      <glyph glyph-name="uni25" unicode="&#x25;" d="M737 720L344-27L255-27L649 720L737 720M246 706Q327 706 370 657.50Q413 609 413 517Q413 420 370 368.50Q327 317 247 317Q165 317 121.50 367.50Q78 418 78 512Q78 605 122 655.50Q166 706 246 706M245 633Q180 633 180 507Q180 444 195 416.50Q210 389 244 389Q279 389 294.50 419Q310 449 310 517Q310 540 308.50 555.50Q307 571 301.50 591.50Q296 612 281.50 622.50Q267 633 245 633M760 375Q841 375 884 326.50Q927 278 927 186Q927 89 884 37.50Q841-14 761-14Q679-14 635.50 36.50Q592 87 592 181Q592 274 636 324.50Q680 375 760 375M759 302Q694 302 694 176Q694 113 709 85.50Q724 58 758 58Q793 58 808.50 88Q824 118 824 186Q824 209 822.50 224.50Q821 240 815.50 260.50Q810 281 795.50 291.50Q781 302 759 302Z"  horiz-adv-x="1000" vert-adv-y="1000"  />

      
      <glyph glyph-name="uni26" unicode="&#x26;" d="M621 344Q609 238 553 169L698 0L525 0L466 70Q387-15 267-15Q169-15 101.50 41.50Q34 98 34 195Q34 266 79 320.50Q124 375 195 406Q128 487 128 554Q128 627 182.50 674Q237 721 320 721Q400 721 452.50 673Q505 625 505 552Q505 438 381 372L473 260Q490 290 499 344L621 344M311 456Q351 480 368 503Q385 526 385 555Q385 584 366.50 602.50Q348 621 320 621Q292 621 273 603Q254 585 254 559Q254 520 311 456M268 314Q172 265 172 199Q172 159 201.50 131Q231 103 273 103Q336 103 391 165L268 314Z"  horiz-adv-x="685" vert-adv-y="1000"  />

      
      <glyph glyph-name="uni27" unicode="&#x27;" d="M172 401L106 401L85 694L193 694L172 401Z"  horiz-adv-x="278" vert-adv-y="1000"  />

      
      <glyph glyph-name="uni28" unicode="&#x28;" d="M302 723Q244 607 217.50 501Q191 395 191 268Q191 48 304-178L184-178Q122-84 87.50 33Q53 150 53 265Q53 385 86.50 507.50Q120 630 184 723L302 723Z"  horiz-adv-x="296" vert-adv-y="1000"  />

      
      <glyph glyph-name="uni29" unicode="&#x29;" d="M-4 723L114 723Q247 519 247 278Q247 165 212 34Q177-97 116-178L-3-178Q57-56 82.50 47.50Q108 151 108 280Q108 522-4 723Z"  horiz-adv-x="296" vert-adv-y="1000"  />

      
      <glyph glyph-name="uni2a" unicode="&#x2a;" d="M386 564L268 525L341 427L275 378L202 481L131 378L64 427L138 525L22 564L48 641L164 597L161 722L245 722L241 597L357 641L386 564Z"  horiz-adv-x="407" vert-adv-y="1000"  />

      
      <glyph glyph-name="uni2b" unicode="&#x2b;" d="M246 0L246 209L40 209L40 310L246 310L246 519L354 519L354 310L560 310L560 209L354 209L354 0L246 0Z"  horiz-adv-x="600" vert-adv-y="1000"  />

      
      <glyph glyph-name="uni2c" unicode="&#x2c;" d="M218 156L218 29Q218-58 179.50-105.50Q141-153 60-166L60-96Q127-76 131 0L60 0L60 156L218 156Z"  horiz-adv-x="278" vert-adv-y="1000"  />

      
      <glyph glyph-name="uni2d" unicode="&#x2d;" d="M354 336L354 209L53 209L53 336L354 336Z"  horiz-adv-x="407" vert-adv-y="1000"  />

      
      <glyph glyph-name="uni2e" unicode="&#x2e;" d="M218 156L218 0L60 0L60 156L218 156Z"  horiz-adv-x="278" vert-adv-y="1000"  />

      
      <glyph glyph-name="uni2f" unicode="&#x2f;" d="M260 729L382 729L110-17L-13-17L260 729Z"  horiz-adv-x="371" vert-adv-y="1000"  />

      
      <glyph glyph-name="uni30" unicode="&#x30;" d="M279 704Q337 704 382.50 682Q428 660 456 625Q484 590 502.50 542Q521 494 528 446Q535 398 535 345Q535 178 467 83Q399-12 280-12Q158-12 89.50 82.50Q21 177 21 345Q21 412 34 471.50Q47 531 75 585.50Q103 640 155.50 672Q208 704 279 704M278 587Q250 587 229 575Q208 563 195.50 539.50Q183 516 175.50 494.50Q168 473 165 438.50Q162 404 161.50 386Q161 368 161 338Q161 103 279 103Q395 103 395 345Q395 470 367 528.50Q339 587 278 587Z"  horiz-adv-x="556" vert-adv-y="1000"  />

      
      <glyph glyph-name="uni31" unicode="&#x31;" d="M396 700L396 0L245 0L245 455L75 455L75 560L93 560Q252 560 279 700L396 700Z"  horiz-adv-x="556" vert-adv-y="1000"  />

      
      <glyph glyph-name="uni32" unicode="&#x32;" d="M528 123L528 0L15 0Q16 47 27.50 86.50Q39 126 54.50 153Q70 180 102 210Q134 240 158.50 258Q183 276 230 308Q236 312 262 329Q288 346 298 353Q308 360 328 377.50Q348 395 356.50 408Q365 421 373 440.50Q381 460 381 481Q381 527 353.50 554.50Q326 582 281 582Q173 582 167 430L31 430L31 445Q31 564 100 634.50Q169 705 286 705Q392 705 458 645.50Q524 586 524 491Q524 414 489 368Q454 322 379 271Q369 264 342 246.50Q315 229 299.50 218Q284 207 262 190Q240 173 224 156.50Q208 140 197 123L528 123Z"  horiz-adv-x="556" vert-adv-y="1000"  />

      
      <glyph glyph-name="uni33" unicode="&#x33;" d="M32 471Q36 580 100 642.50Q164 705 274 705Q378 705 442.50 651.50Q507 598 507 513Q507 462 480.50 424.50Q454 387 409 375Q467 361 500 318.50Q533 276 533 214Q533 114 460.50 50.50Q388-13 273-13Q154-13 84 53Q14 119 14 231L14 241L151 241Q152 176 182.50 141.50Q213 107 270 107Q322 107 354 136.50Q386 166 386 213Q386 268 350.50 292.50Q315 317 259 317Q238 317 224 316L224 416Q235 415 248 415Q370 415 370 503Q370 543 343.50 567Q317 591 273 591Q223 591 195.50 560Q168 529 167 471L32 471Z"  horiz-adv-x="556" vert-adv-y="1000"  />

      
      <glyph glyph-name="uni34" unicode="&#x34;" d="M539 279L539 161L445 161L445 0L313 0L313 161L13 161L13 292L317 702L445 702L445 279L539 279M313 279L313 539L127 279L313 279Z"  horiz-adv-x="556" vert-adv-y="1000"  />

      
      <glyph glyph-name="uni35" unicode="&#x35;" d="M492 694L492 573L205 573L178 421Q227 470 307 470Q408 470 469 407Q530 344 530 241Q530 131 456 60Q382-11 266-11Q156-11 86.50 45.50Q17 102 11 207L151 207Q156 161 187.50 132.50Q219 104 266 104Q319 104 353 141.50Q387 179 387 238Q387 297 354 332Q321 367 265 367Q198 367 160 309L33 309L101 694L492 694Z"  horiz-adv-x="556" vert-adv-y="1000"  />

      
      <glyph glyph-name="uni36" unicode="&#x36;" d="M524 518L389 518Q369 597 295 597Q178 597 162 389Q220 468 318 468Q414 468 475.50 403Q537 338 537 237Q538 128 467.50 58Q397-12 288-12Q164-12 94 79.50Q24 171 24 335Q24 508 97 606.50Q170 705 297 705Q392 705 451.50 656Q511 607 524 518M285 362Q237 362 206 325Q175 288 175 232Q175 175 206 139Q237 103 286 103Q335 103 367 140Q399 177 399 233Q399 289 367 325.50Q335 362 285 362Z"  horiz-adv-x="556" vert-adv-y="1000"  />

      
      <glyph glyph-name="uni37" unicode="&#x37;" d="M515 694L515 577Q399 450 346.50 315.50Q294 181 284 0L137 0Q137 126 208.50 299.50Q280 473 371 566L37 566L37 694L515 694Z"  horiz-adv-x="556" vert-adv-y="1000"  />

      
      <glyph glyph-name="uni38" unicode="&#x38;" d="M146 372Q96 389 69.50 426.50Q43 464 43 517Q43 599 110 652.50Q177 706 278 706Q380 706 446.50 652.50Q513 599 513 517Q513 406 411 372Q472 357 507 311.50Q542 266 542 201Q542 105 469.50 46.50Q397-12 278-12Q159-12 87 46.50Q15 105 15 201Q15 266 50 311.50Q85 357 146 372M278 599Q231 599 202 574Q173 549 173 508Q173 465 202 439.50Q231 414 279 414Q328 414 356.50 439.50Q385 465 385 508Q385 551 356.50 575Q328 599 278 599M275 321Q223 321 190 290Q157 259 157 210Q157 159 190.50 127.50Q224 96 278 96Q333 96 366.50 127Q400 158 400 209Q400 259 365.50 290Q331 321 275 321Z"  horiz-adv-x="556" vert-adv-y="1000"  />

      
      <glyph glyph-name="uni39" unicode="&#x39;" d="M29 176L164 176Q181 96 260 96Q297 96 322.50 116Q348 136 361 172Q374 208 380 237.50Q386 267 389 306Q332 225 239 225Q142 225 79.50 290Q17 355 17 456Q17 563 89 634.50Q161 706 269 706Q339 706 391.50 676.50Q444 647 473 597Q502 547 516 489Q530 431 530 365Q530 297 516 234Q502 171 472.50 114Q443 57 388 22.50Q333-12 260-12Q164-12 102 39Q40 90 29 176M266 589Q219 589 187.50 552.50Q156 516 156 461Q156 405 187 369Q218 333 267 333Q315 333 346.50 369Q378 405 378 460Q378 515 346 552Q314 589 266 589Z"  horiz-adv-x="556" vert-adv-y="1000"  />

      
      <glyph glyph-name="uni3a" unicode="&#x3a;" d="M218 509L218 353L60 353L60 509L218 509M218 156L218 0L60 0L60 156L218 156Z"  horiz-adv-x="278" vert-adv-y="1000"  />

      
      <glyph glyph-name="uni3b" unicode="&#x3b;" d="M219 156L219 29Q219-58 180.50-105.50Q142-153 61-166L61-96Q128-76 132 0L61 0L61 156L219 156M217 509L217 353L59 353L59 509L217 509Z"  horiz-adv-x="278" vert-adv-y="1000"  />

      
      <glyph glyph-name="uni3c" unicode="&#x3c;" d="M40 207L40 312L560 512L560 390L198 260L560 130L560 6L40 207Z"  horiz-adv-x="600" vert-adv-y="1000"  />

      
      <glyph glyph-name="uni3d" unicode="&#x3d;" d="M40 308L40 420L560 420L560 308L40 308M40 99L40 211L560 211L560 99L40 99Z"  horiz-adv-x="600" vert-adv-y="1000"  />

      
      <glyph glyph-name="uni3e" unicode="&#x3e;" d="M560 207L40 6L40 130L402 260L40 390L40 512L560 312L560 207Z"  horiz-adv-x="600" vert-adv-y="1000"  />

      
      <glyph glyph-name="uni3f" unicode="&#x3f;" d="M31 482Q38 597 102 662Q166 727 283 727Q390 727 455 670.50Q520 614 520 522Q520 464 490.50 422Q461 380 407 343Q363 313 350 289.50Q337 266 337 214L204 214Q204 284 215.50 321.50Q227 359 273 398Q279 403 298 418Q317 433 325 441Q333 449 345 463Q357 477 362 492Q367 507 367 525Q367 561 343.50 583Q320 605 281 605Q181 605 177 482L31 482M347 153L347 0L192 0L192 153L347 153Z"  horiz-adv-x="556" vert-adv-y="1000"  />

      
      <glyph glyph-name="uni40" unicode="&#x40;" d="M694 130L723 90Q645 33 573 8Q501-17 417-17Q250-17 143 82Q30 186 30 346Q30 508 146 618.50Q262 729 432 729Q581 729 675.50 645Q770 561 770 429Q770 325 708 245.50Q646 166 564 166Q525 166 502 185.50Q479 205 479 239Q479 251 481 259Q433 166 343 166Q282 166 244.50 208.50Q207 251 207 319Q207 416 267.50 488.50Q328 561 408 561Q490 561 521 493L535 545L620 545L555 322Q545 286 545 268Q545 228 586 228Q635 228 674.50 292Q714 356 714 434Q714 542 636 609.50Q558 677 433 677Q284 677 185 582Q86 487 86 343Q86 207 179.50 120.50Q273 34 420 34Q562 34 694 130M490 434Q490 463 473.50 481.50Q457 500 429 500Q377 500 342 435Q307 370 307 314Q307 273 323.50 250.50Q340 228 370 228Q405 228 434.50 268Q464 308 477 354.50Q490 401 490 434Z"  horiz-adv-x="800" vert-adv-y="1000"  />

      
      <glyph glyph-name="uni41" unicode="&#x41;" d="M423 713L694 0L530 0L474 159L209 159L151 0L-9 0L262 713L423 713M436 273L342 538L247 273L436 273Z"  horiz-adv-x="685" vert-adv-y="1000"  />

      
      <glyph glyph-name="uni42" unicode="&#x42;" d="M68 712L405 712Q505 712 568.50 667.50Q632 623 632 533Q632 483 606 444.50Q580 406 535 386Q665 349 665 212Q665 111 597 55.50Q529 0 424 0L68 0L68 712M220 591L220 424L362 424Q480 424 480 507Q480 556 448 573.50Q416 591 362 591L220 591M220 318L220 124L377 124Q438 124 473.50 144Q509 164 509 221Q509 279 471.50 298.50Q434 318 369 318L220 318Z"  horiz-adv-x="704" vert-adv-y="1000"  />

      
      <glyph glyph-name="uni43" unicode="&#x43;" d="M705 275Q693 141 611 62Q529-17 386-17Q231-17 136.50 85.50Q42 188 42 357Q42 517 137.50 623Q233 729 392 729Q519 729 605 657Q691 585 700 474L547 474Q535 533 493.50 565.50Q452 598 389 598Q324 598 279.50 561.50Q235 525 217 472Q199 419 199 356Q199 246 250 180.50Q301 115 387 115Q530 115 550 275L705 275Z"  horiz-adv-x="741" vert-adv-y="1000"  />

      
      <glyph glyph-name="uni44" unicode="&#x44;" d="M70 0L70 712L358 712Q524 712 613.50 620Q703 528 703 356Q703 184 613.50 92Q524 0 358 0L70 0M225 130L339 130Q546 130 546 356Q546 465 494.50 523.50Q443 582 339 582L225 582L225 130Z"  horiz-adv-x="741" vert-adv-y="1000"  />

      
      <glyph glyph-name="uni45" unicode="&#x45;" d="M603 712L603 584L224 584L224 429L572 429L572 306L224 306L224 131L610 131L610 0L69 0L69 712L603 712Z"  horiz-adv-x="648" vert-adv-y="1000"  />

      
      <glyph glyph-name="uni46" unicode="&#x46;" d="M571 712L571 581L225 581L225 416L526 416L526 292L225 292L225 0L69 0L69 712L571 712Z"  horiz-adv-x="593" vert-adv-y="1000"  />

      
      <glyph glyph-name="uni47" unicode="&#x47;" d="M703 385L703 0L604 0L589 81Q509-17 375-17Q226-17 133 86Q40 189 40 353Q40 518 138 622.50Q236 727 390 727Q512 727 596 658.50Q680 590 694 478L543 478Q532 534 491 565Q450 596 388 596Q299 596 248 531.50Q197 467 197 353Q197 237 248.50 172.50Q300 108 393 108Q466 108 513 152.50Q560 197 563 269L404 269L404 385L703 385Z"  horiz-adv-x="759" vert-adv-y="1000"  />

      
      <glyph glyph-name="uni48" unicode="&#x48;" d="M672 712L672 0L516 0L516 307L225 307L225 0L69 0L69 712L225 712L225 444L516 444L516 712L672 712Z"  horiz-adv-x="741" vert-adv-y="1000"  />

      
      <glyph glyph-name="uni49" unicode="&#x49;" d="M226 712L226 0L69 0L69 712L226 712Z"  horiz-adv-x="295" vert-adv-y="1000"  />

      
      <glyph glyph-name="uni4a" unicode="&#x4a;" d="M498 712L498 223Q498-17 264-17Q151-17 88.50 42Q26 101 26 219L26 266L170 266L170 244Q170 217 170.50 203.50Q171 190 175.50 168.50Q180 147 189 136.50Q198 126 215.50 117.50Q233 109 259 109Q287 109 304.50 118Q322 127 330 145.50Q338 164 340 182Q342 200 342 228L342 712L498 712Z"  horiz-adv-x="556" vert-adv-y="1000"  />

      
      <glyph glyph-name="uni4b" unicode="&#x4b;" d="M702 712L423 431L728 0L532 0L316 320L225 230L225 0L71 0L71 712L225 712L225 416L505 712L702 712Z"  horiz-adv-x="722" vert-adv-y="1000"  />

      
      <glyph glyph-name="uni4c" unicode="&#x4c;" d="M573 134L573 0L69 0L69 712L225 712L225 134L573 134Z"  horiz-adv-x="593" vert-adv-y="1000"  />

      
      <glyph glyph-name="uni4d" unicode="&#x4d;" d="M69 0L69 712L292 712L458 223L620 712L838 712L838 0L691 0L691 506L516 0L395 0L218 501L218 0L69 0Z"  horiz-adv-x="907" vert-adv-y="1000"  />

      
      <glyph glyph-name="uni4e" unicode="&#x4e;" d="M69 0L69 712L228 712L521 235L521 712L671 712L671 0L515 0L220 478L220 0L69 0Z"  horiz-adv-x="741" vert-adv-y="1000"  />

      
      <glyph glyph-name="uni4f" unicode="&#x4f;" d="M391 729Q547 729 643.50 625.50Q740 522 740 355Q740 188 643.50 85.50Q547-17 390-17Q232-17 135 85.50Q38 188 38 355Q38 524 134.50 626.50Q231 729 391 729M389 601Q301 601 248.50 535Q196 469 196 358Q196 243 248 178Q300 113 391 112Q480 112 531 178Q582 244 582 358Q582 470 530 535.50Q478 601 389 601Z"  horiz-adv-x="778" vert-adv-y="1000"  />

      
      <glyph glyph-name="uni50" unicode="&#x50;" d="M70 712L377 712Q497 712 567.50 654.50Q638 597 638 483Q638 371 568 313.50Q498 256 385 256L225 256L225 0L70 0L70 712M225 584L225 379L364 379Q486 379 486 481Q486 584 365 584L225 584Z"  horiz-adv-x="667" vert-adv-y="1000"  />

      
      <glyph glyph-name="uni51" unicode="&#x51;" d="M734 8L661-71L556 24Q492-17 384-17Q229-17 133.50 85Q38 187 38 354Q38 519 136.50 623.50Q235 728 391 728Q544 728 641 624.50Q738 521 738 358Q738 275 713 205Q688 135 642 92L734 8M534 192Q582 249 582 357Q582 469 530 534Q478 599 388 599Q300 599 247.50 533Q195 467 195 355Q195 242 247 175Q299 108 387 108Q423 108 455 122L384 184L457 262L534 192Z"  horiz-adv-x="778" vert-adv-y="1000"  />

      
      <glyph glyph-name="uni52" unicode="&#x52;" d="M75 712L429 712Q535 712 602 662Q669 612 669 510Q669 448 639 401.50Q609 355 556 335Q648 316 661 169Q661 164 663 138Q665 112 667 96.50Q669 81 672 59Q675 37 681 22Q687 7 695 0L533 0Q525 16 521 40.50Q517 65 514 103.50Q511 142 511 146Q503 221 473.50 250Q444 279 369 279L230 279L230 0L75 0L75 712M230 589L230 392L378 392Q443 392 479.50 412.50Q516 433 516 493Q516 549 480.50 569Q445 589 385 589L230 589Z"  horiz-adv-x="722" vert-adv-y="1000"  />

      
      <glyph glyph-name="uni53" unicode="&#x53;" d="M596 500L448 500Q439 606 313 606Q259 606 228.50 584.50Q198 563 198 525Q198 512 202 502Q206 492 217 483.50Q228 475 239 469.50Q250 464 271.50 457.50Q293 451 310.50 446Q328 441 360 433Q392 425 416 418Q521 388 572.50 343Q624 298 624 214Q624 153 599 107.50Q574 62 531.50 35.50Q489 9 438.50-3.50Q388-16 331-16Q186-16 104.50 50.50Q23 117 22 238L177 238Q181 104 338 104Q399 104 434.50 129.50Q470 155 470 199Q470 236 437.50 253Q405 270 301 300Q295 301 292 302Q289 303 284 304.50Q279 306 275 307Q239 317 225 321.50Q211 326 180.50 337Q150 348 136 357Q122 366 101.50 382Q81 398 72 415.50Q63 433 55.50 458.50Q48 484 48 514Q48 611 123 669Q198 727 322 727Q442 727 518 670.50Q594 614 596 500Z"  horiz-adv-x="649" vert-adv-y="1000"  />

      
      <glyph glyph-name="uni54" unicode="&#x54;" d="M598 712L598 579L384 579L384 0L227 0L227 579L13 579L13 712L598 712Z"  horiz-adv-x="611" vert-adv-y="1000"  />

      
      <glyph glyph-name="uni55" unicode="&#x55;" d="M675 712L675 284Q675 131 601.50 58.50Q528-14 372-14Q214-14 139.50 59.50Q65 133 65 286L65 712L221 712L221 286Q221 199 254 157Q287 115 374 115Q458 115 488.50 157Q519 199 519 286L519 712L675 712Z"  horiz-adv-x="741" vert-adv-y="1000"  />

      
      <glyph glyph-name="uni56" unicode="&#x56;" d="M-8 712L155 712L315 212L477 712L639 712L402 0L225 0L-8 712Z"  horiz-adv-x="630" vert-adv-y="1000"  />

      
      <glyph glyph-name="uni57" unicode="&#x57;" d="M3 712L160 712L274 228L399 712L546 712L669 222L787 712L941 712L749 0L593 0L471 486L351 0L192 0L3 712Z"  horiz-adv-x="944" vert-adv-y="1000"  />

      
      <glyph glyph-name="uni58" unicode="&#x58;" d="M651 712L422 372L672 0L485 0L329 247L171 0L-7 0L244 372L12 712L194 712L336 483L479 712L651 712Z"  horiz-adv-x="667" vert-adv-y="1000"  />

      
      <glyph glyph-name="uni59" unicode="&#x59;" d="M676 712L411 274L411 0L257 0L257 277L-9 712L169 712L335 427L503 712L676 712Z"  horiz-adv-x="667" vert-adv-y="1000"  />

      
      <glyph glyph-name="uni5a" unicode="&#x5a;" d="M610 712L610 593L224 134L623 134L623 0L20 0L20 127L403 579L47 579L47 712L610 712Z"  horiz-adv-x="648" vert-adv-y="1000"  />

      
      <glyph glyph-name="uni5b" unicode="&#x5b;" d="M329 717L329 608L201 608L201-63L329-63L329-172L70-172L70 717L329 717Z"  horiz-adv-x="333" vert-adv-y="1000"  />

      
      <glyph glyph-name="uni5c" unicode="&#x5c;" d="M113 729L386-17L263-17L-9 729L113 729Z"  horiz-adv-x="371" vert-adv-y="1000"  />

      
      <glyph glyph-name="uni5d" unicode="&#x5d;" d="M4 717L263 717L263-172L4-172L4-63L132-63L132 608L4 608L4 717Z"  horiz-adv-x="333" vert-adv-y="1000"  />

      
      <glyph glyph-name="uni5e" unicode="&#x5e;" d="M67 268L243 694L357 694L533 268L414 268L297 556L186 268L67 268Z"  horiz-adv-x="600" vert-adv-y="1000"  />

      
      <glyph glyph-name="uni5f" unicode="&#x5f;" d="M0-125L0-75L500-75L500-125L0-125Z"  horiz-adv-x="500" vert-adv-y="1000"  />

      
      <glyph glyph-name="uni60" unicode="&#x60;" d="M111 722L205 579L104 579L-48 722L111 722Z"  horiz-adv-x="259" vert-adv-y="1000"  />

      
      <glyph glyph-name="uni61" unicode="&#x61;" d="M534 0L390 0Q383 20 380 50Q315-15 213-15Q127-15 78 26.50Q29 68 29 141Q29 174 37.50 199Q46 224 65.50 241Q85 258 102.50 269Q120 280 151 287Q182 294 201 297.50Q220 301 254 305Q329 315 354.50 326Q380 337 380 367Q380 436 287 436Q238 436 215 418.50Q192 401 185 357L52 357Q64 531 291 531Q516 531 516 363L516 140Q516 42 534 0M379 251Q354 236 279 224Q216 214 197 199Q175 180 175 147Q175 115 195.50 96.50Q216 78 253 78Q310 78 344.50 108.50Q379 139 379 193L379 251Z"  horiz-adv-x="574" vert-adv-y="1000"  />

      
      <glyph glyph-name="uni62" unicode="&#x62;" d="M194 712L194 453Q254 528 357 528Q460 528 519 453Q578 378 578 263Q578 139 514.50 62.50Q451-14 349-14Q242-14 187 65L188 0L53 0L53 712L194 712M313 419Q256 419 222.50 376.50Q189 334 189 261Q189 186 222 143Q255 100 313 100Q368 100 401.50 144Q435 188 435 262Q435 333 401.50 376Q368 419 313 419Z"  horiz-adv-x="611" vert-adv-y="1000"  />

      
      <glyph glyph-name="uni63" unicode="&#x63;" d="M546 199Q533 99 467.50 43Q402-13 299-13Q180-13 108 60Q36 133 36 254Q36 379 108.50 455Q181 531 301 531Q404 531 469 478.50Q534 426 543 336L404 336Q388 425 302 425Q244 425 211.50 380.50Q179 336 179 257Q179 180 210.50 137.50Q242 95 299 95Q392 95 409 199L546 199Z"  horiz-adv-x="574" vert-adv-y="1000"  />

      
      <glyph glyph-name="uni64" unicode="&#x64;" d="M557 0L423 0L423 66Q372-14 267-14Q160-14 96.50 60.50Q33 135 33 260Q33 382 94.50 456Q156 530 259 530Q307 530 349.50 510Q392 490 416 452L416 712L557 712L557 0M421 259Q421 334 388.50 376Q356 418 298 418Q240 418 208 376Q176 334 176 260Q176 185 208.50 142.50Q241 100 298 100Q357 100 389 141.50Q421 183 421 259Z"  horiz-adv-x="611" vert-adv-y="1000"  />

      
      <glyph glyph-name="uni65" unicode="&#x65;" d="M539 160Q515 77 450.50 31Q386-15 297-15Q178-15 105.50 59Q33 133 33 255Q33 375 106 453Q179 531 292 531Q409 531 478 451.50Q547 372 547 236L547 222L177 222Q178 155 209.50 120Q241 85 298 85Q373 85 403 160L539 160M403 312Q398 363 370 395.50Q342 428 292 428Q245 428 214 397Q183 366 177 312L403 312Z"  horiz-adv-x="574" vert-adv-y="1000"  />

      
      <glyph glyph-name="uni66" unicode="&#x66;" d="M335 712L335 608Q291 610 288 610Q250 610 237.50 599.50Q225 589 225 557L225 516L326 516L326 420L226 420L226 0L84 0L84 420L0 420L0 516L84 516L84 543Q84 634 125 674.50Q166 715 261 715Q272 715 284.50 714.50Q297 714 312 713Q327 712 335 712Z"  horiz-adv-x="333" vert-adv-y="1000"  />

      
      <glyph glyph-name="uni67" unicode="&#x67;" d="M549 516L549 54Q549-73 486-132.50Q423-192 295-192Q74-192 53-31L194-31Q202-66 227-81.50Q252-97 298-97Q365-97 388-64.50Q411-32 412 37L413 95Q355 15 255 15Q154 15 94.50 84Q35 153 35 269Q35 387 97 458.50Q159 530 261 530Q315 530 350.50 510.50Q386 491 415 447L415 516L549 516M382 381Q382 381 366 400.50Q350 420 294 420Q238 420 206.50 380.50Q175 341 175 270Q175 202 207.50 161.50Q240 121 295 121Q350 121 382 162Q414 203 414 273Q414 342 382 381Z"  horiz-adv-x="611" vert-adv-y="1000"  />

      
      <glyph glyph-name="uni68" unicode="&#x68;" d="M195 712L195 447Q256 529 358 529Q539 529 539 338L539 0L397 0L397 304Q397 357 378 385Q359 413 306 413Q242 413 218.50 372Q195 331 195 263L195 0L55 0L55 712L195 712Z"  horiz-adv-x="593" vert-adv-y="1000"  />

      
      <glyph glyph-name="uni69" unicode="&#x69;" d="M200 712L200 592L58 592L58 712L200 712M200 516L200 0L58 0L58 516L200 516Z"  horiz-adv-x="258" vert-adv-y="1000"  />

      
      <glyph glyph-name="uni6a" unicode="&#x6a;" d="M210 516L210-1Q210-103 173.50-145Q137-187 38-187Q10-187-19-185L-19-71Q-7-72 7-72Q29-72 41.50-68Q54-64 60-53Q66-42 67-31Q68-20 68 3L68 516L210 516M210 712L210 590L68 590L68 712L210 712Z"  horiz-adv-x="278" vert-adv-y="1000"  />

      
      <glyph glyph-name="uni6b" unicode="&#x6b;" d="M555 516L361 325L578 0L406 0L264 229L206 175L206 0L67 0L67 712L206 712L206 331L388 516L555 516Z"  horiz-adv-x="574" vert-adv-y="1000"  />

      
      <glyph glyph-name="uni6c" unicode="&#x6c;" d="M200 712L200 0L58 0L58 712L200 712Z"  horiz-adv-x="258" vert-adv-y="1000"  />

      
      <glyph glyph-name="uni6d" unicode="&#x6d;" d="M849 0L705 0L705 308Q705 359 689 386.50Q673 414 623 414Q524 414 524 290L524 0L382 0L382 314Q382 362 366 388.50Q350 415 304 415Q201 415 201 280L201 0L59 0L59 516L194 516L194 445Q255 530 358 530Q465 530 504 445Q566 530 673 530Q758 530 803.50 480.50Q849 431 849 347L849 0Z"  horiz-adv-x="906" vert-adv-y="1000"  />

      
      <glyph glyph-name="uni6e" unicode="&#x6e;" d="M540 0L396 0L396 301Q396 356 378 384.50Q360 413 308 413Q196 413 196 277L196 0L55 0L55 516L190 516L190 444Q254 530 361 530Q444 530 492 482Q540 434 540 345L540 0Z"  horiz-adv-x="593" vert-adv-y="1000"  />

      
      <glyph glyph-name="uni6f" unicode="&#x6f;" d="M308 531Q427 531 499.50 456Q572 381 572 258Q572 134 499.50 59Q427-16 306-16Q185-16 112 59Q39 134 39 258Q39 381 113 456Q187 531 308 531M304 423Q247 423 214 379Q181 335 181 258Q181 179 214 135Q247 91 306 91Q365 91 397.50 135.50Q430 180 430 259Q430 336 396.50 379.50Q363 423 304 423Z"  horiz-adv-x="611" vert-adv-y="1000"  />

      
      <glyph glyph-name="uni70" unicode="&#x70;" d="M188 516L188 452Q244 530 348 530Q452 530 515 455Q578 380 578 255Q578 134 516.50 60.50Q455-13 354-13Q250-13 195 64L195-183L54-183L54 516L188 516M313 416Q255 416 222.50 374Q190 332 190 257Q190 182 223 140Q256 98 314 98Q371 98 403.50 140Q436 182 436 255Q436 330 403 373Q370 416 313 416Z"  horiz-adv-x="611" vert-adv-y="1000"  />

      
      <glyph glyph-name="uni71" unicode="&#x71;" d="M558 516L558-183L417-183L417 65Q360-13 258-13Q155-13 94 60Q33 133 33 255Q33 380 96 455Q159 530 264 530Q371 530 423 452L423 516L558 516M295 417Q240 417 208 373.50Q176 330 176 254Q176 180 208 139Q240 98 298 98Q356 98 388.50 140.50Q421 183 421 259Q421 334 388 375.50Q355 417 295 417Z"  horiz-adv-x="611" vert-adv-y="1000"  />

      
      <glyph glyph-name="uni72" unicode="&#x72;" d="M389 525L389 394Q359 400 334 400Q264 400 231 355.50Q198 311 198 236L198 0L56 0L56 516L191 516L191 421Q242 528 358 528Q368 528 389 525Z"  horiz-adv-x="389" vert-adv-y="1000"  />

      
      <glyph glyph-name="uni73" unicode="&#x73;" d="M490 366L358 366Q352 405 328.50 421Q305 437 260 437Q222 437 201 423.50Q180 410 180 386Q180 358 204 347Q228 336 290 323Q301 321 306 320Q342 313 363.50 307.50Q385 302 416 289.50Q447 277 464 261.50Q481 246 494 220Q507 194 507 160Q507 79 444 32Q381-15 271-15Q166-15 98 30Q30 75 29 168L164 168Q171 82 274 82Q317 82 342.50 99.50Q368 117 368 146Q368 175 345 187Q322 199 260 213Q255 214 252 215Q245 217 221 222Q197 227 187.50 229.50Q178 232 156.50 238Q135 244 125 249.50Q115 255 98.50 263.50Q82 272 74 282Q66 292 56.50 305.50Q47 319 43.50 336Q40 353 40 373Q40 449 99 490Q158 531 266 531Q363 531 425 491Q487 451 490 366Z"  horiz-adv-x="537" vert-adv-y="1000"  />

      
      <glyph glyph-name="uni74" unicode="&#x74;" d="M338 516L338 420L233 420L233 177Q233 154 234 143.50Q235 133 241 122Q247 111 259.50 107.50Q272 104 295 104Q321 104 338 106L338-2Q286-6 252-6Q159-6 125.50 26.50Q92 59 92 152L92 420L6 420L6 516L92 516L92 672L233 672L233 516L338 516Z"  horiz-adv-x="352" vert-adv-y="1000"  />

      
      <glyph glyph-name="uni75" unicode="&#x75;" d="M538 516L538 0L403 0L403 73Q343-15 235-15Q150-15 102.50 31.50Q55 78 55 169L55 516L198 516L198 221Q198 192 200.50 174.50Q203 157 211 139Q219 121 237.50 112.50Q256 104 285 104Q397 104 397 250L397 516L538 516Z"  horiz-adv-x="593" vert-adv-y="1000"  />

      
      <glyph glyph-name="uni76" unicode="&#x76;" d="M375 516L516 516L341 0L182 0L5 516L155 516L265 164L375 516Z"  horiz-adv-x="520" vert-adv-y="1000"  />

      
      <glyph glyph-name="uni77" unicode="&#x77;" d="M5 516L156 516L252 165L339 516L476 516L566 167L662 516L807 516L644 0L498 0L406 347L317 0L170 0L5 516Z"  horiz-adv-x="814" vert-adv-y="1000"  />

      
      <glyph glyph-name="uni78" unicode="&#x78;" d="M517 516L347 275L538 0L376 0L267 167L159 0L-2 0L186 272L15 516L177 516L269 378L360 516L517 516Z"  horiz-adv-x="537" vert-adv-y="1000"  />

      
      <glyph glyph-name="uni79" unicode="&#x79;" d="M523 516L333 2Q319-37 312.50-52.50Q306-68 292.50-96Q279-124 267.50-135Q256-146 236.50-160Q217-174 192.50-179Q168-184 136-184Q110-184 41-183L41-66L110-66Q145-66 163.50-48Q182-30 182 3Q182 11 178 23L-9 516L144 516L262 165L376 516L523 516Z"  horiz-adv-x="519" vert-adv-y="1000"  />

      
      <glyph glyph-name="uni7a" unicode="&#x7a;" d="M479 516L479 413L207 112L497 112L497 0L22 0L22 108L295 407L43 407L43 516L479 516Z"  horiz-adv-x="519" vert-adv-y="1000"  />

      
      <glyph glyph-name="uni7b" unicode="&#x7b;" d="M330-171Q201-165 150.50-114.50Q100-64 100 60L100 96Q100 175 83.50 204Q67 233-1 241L-1 305Q58 312 79 340Q100 368 100 431L100 485Q100 610 150.50 660Q201 710 330 718L330 654Q271 648 251 617.50Q231 587 231 516L231 459Q231 373 197.50 328.50Q164 284 82 273Q166 265 198.50 217.50Q231 170 231 87L231 29Q231-40 250-71Q269-102 330-108L330-171Z"  horiz-adv-x="333" vert-adv-y="1000"  />

      
      <glyph glyph-name="uni7c" unicode="&#x7c;" d="M51-214L51 786L172 786L172-214L51-214Z"  horiz-adv-x="223" vert-adv-y="1000"  />

      
      <glyph glyph-name="uni7d" unicode="&#x7d;" d="M330 241Q262 233 245.50 204Q229 175 229 96L229 60Q229-64 178.50-114.50Q128-165-1-171L-1-108Q60-102 79-71Q98-40 98 29L98 87Q98 170 130.50 217.50Q163 265 247 273Q165 284 131.50 328.50Q98 373 98 459L98 516Q98 587 78 617.50Q58 648-1 654L-1 718Q128 710 178.50 660Q229 610 229 485L229 431Q229 368 250 340Q271 312 330 305L330 241Z"  horiz-adv-x="333" vert-adv-y="1000"  />

      
      <glyph glyph-name="uni7e" unicode="&#x7e;" d="M422 171Q401 171 370 178Q339 185 318.50 192Q298 199 259.50 213Q221 227 211 230Q179 240 166 240Q140 240 124.50 219Q109 198 105 170L27 170Q30 204 39.50 233.50Q49 263 65.50 290Q82 317 110.50 332.50Q139 348 177 348Q193 348 212.50 344.50Q232 341 244.50 337Q257 333 280 325Q303 317 312 314Q411 281 437 281Q485 281 497 348L575 348Q555 171 422 171Z"  horiz-adv-x="600" vert-adv-y="1000"  />

      
      <glyph glyph-name="unia3" unicode="&#xa3;" d="M540 479L400 479Q398 603 291 603Q248 603 220 577Q192 551 192 511Q192 488 206.50 452Q221 416 236 392L369 392L369 310L263 310Q274 273 274 255Q274 211 252.50 179Q231 147 189 111Q236 132 279 132Q306 132 349 122Q395 110 413 110Q468 110 505 152L565 49Q503-13 404-13Q360-13 283 10Q225 26 193 26Q143 26 86-14L25 77Q28 79 41 90Q54 101 57.50 104Q61 107 72 117Q83 127 86.50 131Q90 135 99 145Q108 155 111 161Q114 167 119.50 177.50Q125 188 127 196.50Q129 205 131 216Q133 227 133 239Q133 272 116 310L18 310L18 392L82 392Q39 453 39 518Q39 609 108 665Q177 721 289 721Q407 721 472 658.50Q537 596 540 479Z"  horiz-adv-x="556" vert-adv-y="1000"  />

      
      <glyph glyph-name="unia4" unicode="&#xa4;" d="M524 173L463 112L396 178Q342 142 279 142Q213 142 160 178L93 112L32 173L98 239Q62 296 62 358Q62 421 98 477L32 543L93 604L159 538Q215 574 278 574Q336 574 398 538L463 604L524 543L458 477Q494 427 494 357Q494 295 458 239L524 173M351.50 284.50Q351.50 284.50 366.75 299.75Q382 315 382 358Q382 401 351.50 431.50Q321 462 278 462Q235 462 204.50 431.50Q174 401 174 358Q174 315 204.50 284.50Q235 254 278 254Q321 254 351.50 284.50Z"  horiz-adv-x="556" vert-adv-y="1000"  />

      
      <glyph glyph-name="unia6" unicode="&#xa6;" d="M58-89L58 161L165 161L165-89L58-89M58 411L58 661L165 661L165 411L58 411Z"  horiz-adv-x="223" vert-adv-y="1000"  />

      
      <glyph glyph-name="unia7" unicode="&#xa7;" d="M494 537L368 537Q362 619 285 619Q252 619 231.50 602Q211 585 211 558Q211 550 212 544Q213 538 216.50 531.50Q220 525 223 520.50Q226 516 234.50 510Q243 504 249 500Q255 496 269 488.50Q283 481 293.50 475.50Q304 470 324.50 459.50Q345 449 361 441Q366 438 391.50 425Q417 412 425 408Q433 404 455 391Q477 378 485.50 370Q494 362 509 347Q524 332 530 319Q536 306 541.50 288Q547 270 547 250Q547 200 519 161Q491 122 443 105Q497 56 497-9Q497-88 437-137.50Q377-187 281-187Q178-187 119-134Q60-81 59 12L186 12Q193-77 281-77Q317-77 338.50-59Q360-41 360-11Q360 22 326.50 46Q293 70 190 121Q101 165 71 190Q11 239 11 312Q11 365 39.50 402.50Q68 440 118 456Q75 500 75 557Q75 631 134 678Q193 725 286 725Q379 725 436 673.50Q493 622 494 537M188 391Q134 375 134 325Q134 311 139 300Q144 289 156.50 280Q169 271 175.50 267Q182 263 199 254L369 166Q393 168 408 185Q423 202 423 227Q423 254 407.50 269.50Q392 285 362 300L188 391Z"  horiz-adv-x="556" vert-adv-y="1000"  />

      
      <glyph glyph-name="unia9" unicode="&#xa9;" d="M128.50 621.50Q128.50 621.50 183.25 676.25Q238 731 393 731Q548 731 658 621.50Q768 512 768 357Q768 202 658.50 92.50Q549-17 394-17Q239-17 129 92.50Q19 202 19 357Q19 512 128.50 621.50M612 575.50Q612 575.50 566.50 620.75Q521 666 393 666Q265 666 174.50 575.50Q84 485 84 357Q84 229 174.50 138.50Q265 48 393 48Q521 48 612 138.50Q703 229 703 357Q703 485 612 575.50M582 296Q574 225 524.50 181Q475 137 402 137Q312 137 253 199.50Q194 262 194 357Q194 455 250 517.50Q306 580 394 580Q471 580 523.50 534.50Q576 489 581 418L489 418Q483 455 459.50 476Q436 497 400 497Q356 497 331 460Q306 423 306 359Q306 294 332.50 257Q359 220 406 220Q443 220 462.50 239Q482 258 490 296L582 296Z"  horiz-adv-x="800" vert-adv-y="1000"  />

      
      <glyph glyph-name="uniab" unicode="&#xab;" d="M395 454L395 334L307 265L395 196L395 75L239 198L239 331L395 454M200 454L200 336L110 267L200 196L200 74L42 200L42 331L200 454Z"  horiz-adv-x="444" vert-adv-y="1000"  />

      
      <glyph glyph-name="uniac" unicode="&#xac;" d="M40 308L40 420L560 420L560 99L447 99L447 308L40 308Z"  horiz-adv-x="600" vert-adv-y="1000"  />

      
      <glyph glyph-name="uniae" unicode="&#xae;" d="M67.50 674.50Q67.50 674.50 94.75 701.75Q122 729 199 729Q276 729 331 674.50Q386 620 386 543Q386 466 331 411Q276 356 199 356Q122 356 67.50 411Q13 466 13 543Q13 620 67.50 674.50M308 652Q308 652 285.50 674.50Q263 697 199 697Q135 697 90 652Q45 607 45 543Q45 479 90 434Q135 389 199 389Q263 389 308 434Q353 479 353 543Q353 607 308 652M121 647L195 647Q287 647 287 586Q287 550 249 537Q269 529 276 515.50Q283 502 284 468Q284 452 289 440L241 440Q237 448 236 469Q235 499 226.50 508Q218 517 190 517L170 517L170 440L121 440L121 647M170 555L193 555Q238 555 238 582Q238 609 193 609L170 609L170 555Z"  horiz-adv-x="400" vert-adv-y="1000"  />

      
      <glyph glyph-name="unib0" unicode="&#xb0;" d="M315.50 656Q315.50 656 339.25 632Q363 608 363 541Q363 474 315.50 426Q268 378 200 378Q132 378 84.50 426Q37 474 37 541Q37 608 84.50 656Q132 704 200 704Q268 704 315.50 656M251 490Q251 490 261.50 500.50Q272 511 272 541Q272 571 251 592.50Q230 614 200 614Q170 614 149 592.50Q128 571 128 541Q128 511 149 490Q170 469 200 469Q230 469 251 490Z"  horiz-adv-x="400" vert-adv-y="1000"  />

      
      <glyph glyph-name="unib1" unicode="&#xb1;" d="M241 118L241 270L40 270L40 381L241 381L241 536L359 536L359 381L560 381L560 270L359 270L359 118L241 118M40-17L40 94L560 94L560-17L40-17Z"  horiz-adv-x="600" vert-adv-y="1000"  />

      
      <glyph glyph-name="unib5" unicode="&#xb5;" d="M57-183L57 516L198 516L198 310Q198 303 198 284.50Q198 266 198 256.50Q198 247 198.50 229Q199 211 201 201Q203 191 206 176Q209 161 214 152Q219 143 226.50 132.50Q234 122 244 116.50Q254 111 267.50 107Q281 103 297 103Q397 103 397 309L397 516L538 516L538 0L411 0L411 72Q386 31 362 11.50Q338-8 302-8Q234-8 191 49L191-183L57-183Z"  horiz-adv-x="593" vert-adv-y="1000"  />

      
      <glyph glyph-name="unib6" unicode="&#xb6;" d="M583 631L529 631L529-183L430-183L430 631L322 631L322-183L223-183L223 247Q131 253 77.50 313.50Q24 374 24 469Q24 587 95.50 649.50Q167 712 284 712L583 712L583 631Z"  horiz-adv-x="620" vert-adv-y="1000"  />

      
      <glyph glyph-name="unib7" unicode="&#xb7;" d="M218 365L218 209L60 209L60 365L218 365Z"  horiz-adv-x="278" vert-adv-y="1000"  />

      
      <glyph glyph-name="unibb" unicode="&#xbb;" d="M244 456L402 330L402 198L244 75L244 193L335 263L244 335L244 456M49 455L205 331L205 199L49 77L49 194L138 264L49 333L49 455Z"  horiz-adv-x="444" vert-adv-y="1000"  />

      
      <glyph glyph-name="unif7" unicode="&#xf7;" d="M40 208L40 333L560 333L560 208L40 208M238 8L238 142L362 142L362 8L238 8M238 399L238 533L362 533L362 399L238 399Z"  horiz-adv-x="600" vert-adv-y="1000"  />

      
      <glyph glyph-name="uni0192" unicode="&#x0192;" d="M451 430L434 336L335 336L278 27Q258-85 214-128Q170-171 59-171Q26-171-6-169L12-63Q27-64 42-64Q85-64 102-49.50Q119-35 129 18L189 336L98 336L115 430L207 430L227 539Q245 637 292 677.50Q339 718 436 718Q461 718 509 715L489 609Q468 611 451 611Q409 611 394.50 592Q380 573 371 528L353 430L451 430Z"  horiz-adv-x="556" vert-adv-y="1000"  />

      
      <glyph glyph-name="uni0401" unicode="&#x0401;" d="M603 712L603 584L224 584L224 429L572 429L572 306L224 306L224 131L610 131L610 0L69 0L69 712L603 712M506 888L506 772L373 772L373 888L506 888M297 888L297 772L164 772L164 888L297 888Z"  horiz-adv-x="648" vert-adv-y="1000"  />

      
      <glyph glyph-name="uni0402" unicode="&#x0402;" d="M600 165Q600 240 567.50 281Q535 322 477 322Q419 322 386.50 280Q354 238 354 163L354 0L197 0L197 579L13 579L13 712L588 712L588 579L354 579L354 365Q410 443 512 443Q618 443 688 365.50Q758 288 758 165Q758 33 684-55.50Q610-144 505-144Q453-144 417-132L417-10Q433-18 472-18Q531-18 565.50 29Q600 76 600 165Z"  horiz-adv-x="778" vert-adv-y="1000"  />

      
      <glyph glyph-name="uni0403" unicode="&#x0403;" d="M438 902L289 758L191 758L280 902L438 902M565 712L565 579L225 579L225 0L69 0L69 712L565 712Z"  horiz-adv-x="574" vert-adv-y="1000"  />

      
      <glyph glyph-name="uni0404" unicode="&#x0404;" d="M463 309L202 309Q213 219 262 167Q311 115 387 115Q518 115 546 251L702 251Q684 127 603 55Q522-17 386-17Q231-17 136.50 85.50Q42 188 42 357Q42 517 137.50 623Q233 729 392 729Q515 729 599.50 661.50Q684 594 698 489L543 489Q528 541 487.50 569.50Q447 598 389 598Q313 598 268 552Q223 506 207 432L463 432L463 309Z"  horiz-adv-x="741" vert-adv-y="1000"  />

      
      <glyph glyph-name="uni0405" unicode="&#x0405;" d="M596 500L448 500Q439 606 313 606Q259 606 228.50 584.50Q198 563 198 525Q198 512 202 502Q206 492 217 483.50Q228 475 239 469.50Q250 464 271.50 457.50Q293 451 310.50 446Q328 441 360 433Q392 425 416 418Q521 388 572.50 343Q624 298 624 214Q624 153 599 107.50Q574 62 531.50 35.50Q489 9 438.50-3.50Q388-16 331-16Q186-16 104.50 50.50Q23 117 22 238L177 238Q181 104 338 104Q399 104 434.50 129.50Q470 155 470 199Q470 236 437.50 253Q405 270 301 300Q295 301 292 302Q289 303 284 304.50Q279 306 275 307Q239 317 225 321.50Q211 326 180.50 337Q150 348 136 357Q122 366 101.50 382Q81 398 72 415.50Q63 433 55.50 458.50Q48 484 48 514Q48 611 123 669Q198 727 322 727Q442 727 518 670.50Q594 614 596 500Z"  horiz-adv-x="649" vert-adv-y="1000"  />

      
      <glyph glyph-name="uni0406" unicode="&#x0406;" d="M226 712L226 0L69 0L69 712L226 712Z"  horiz-adv-x="295" vert-adv-y="1000"  />

      
      <glyph glyph-name="uni0407" unicode="&#x0407;" d="M226 712L226 0L69 0L69 712L226 712M318 888L318 772L185 772L185 888L318 888M109 888L109 772L-24 772L-24 888L109 888Z"  horiz-adv-x="295" vert-adv-y="1000"  />

      
      <glyph glyph-name="uni0408" unicode="&#x0408;" d="M498 712L498 223Q498-17 264-17Q151-17 88.50 42Q26 101 26 219L26 266L170 266L170 244Q170 217 170.50 203.50Q171 190 175.50 168.50Q180 147 189 136.50Q198 126 215.50 117.50Q233 109 259 109Q287 109 304.50 118Q322 127 330 145.50Q338 164 340 182Q342 200 342 228L342 712L498 712Z"  horiz-adv-x="556" vert-adv-y="1000"  />

      
      <glyph glyph-name="uni0409" unicode="&#x0409;" d="M480 579L309 579L299 277Q289-14 101-14Q49-14 13-2L13 124Q37 112 68 112Q105 112 125 145.50Q145 179 148 279L160 712L636 712L636 444L777 444Q892 444 961 391.50Q1030 339 1030 229Q1030 115 959.50 57.50Q889 0 769 0L480 0L480 579M878 227Q878 272 846.50 289.50Q815 307 756 307L636 307L636 133L757 133Q878 133 878 227Z"  horiz-adv-x="1054" vert-adv-y="1000"  />

      
      <glyph glyph-name="uni040A" unicode="&#x040A;" d="M480 307L225 307L225 0L69 0L69 712L225 712L225 444L480 444L480 712L636 712L636 444L777 444Q892 444 961 391.50Q1030 339 1030 229Q1030 115 959.50 57.50Q889 0 769 0L480 0L480 307M878 227Q878 272 846.50 289.50Q815 307 756 307L636 307L636 133L757 133Q878 133 878 227Z"  horiz-adv-x="1054" vert-adv-y="1000"  />

      
      <glyph glyph-name="uni040B" unicode="&#x040B;" d="M738 0L582 0L582 201Q582 265 556.50 291.50Q531 318 471 318Q446 318 354 302L354 0L197 0L197 579L13 579L13 712L588 712L588 579L354 579L354 428Q451 448 497 448Q620 448 679 390.50Q738 333 738 199L738 0Z"  horiz-adv-x="778" vert-adv-y="1000"  />

      
      <glyph glyph-name="uni040C" unicode="&#x040C;" d="M702 712L423 431L728 0L532 0L316 320L225 230L225 0L71 0L71 712L225 712L225 416L505 712L702 712M498 902L349 758L251 758L340 902L498 902Z"  horiz-adv-x="722" vert-adv-y="1000"  />

      
      <glyph glyph-name="uni040E" unicode="&#x040E;" d="M461 904L517 904Q517 760 354 760Q191 760 191 904L247 904Q260 838 354 838Q448 838 461 904M102 3L102 135Q140 119 177 119Q211 119 230 136.50Q249 154 249 180Q249 189 247 198Q245 207 241 218Q237 229 234 235.50Q231 242 224.50 255Q218 268 216 272L7 712L180 712L341 337L499 712L666 712L426 188Q375 76 324 31.50Q273-13 189-13Q142-13 102 3Z"  horiz-adv-x="667" vert-adv-y="1000"  />

      
      <glyph glyph-name="uni040F" unicode="&#x040F;" d="M446 0L446-183L295-183L295 0L69 0L69 712L225 712L225 133L516 133L516 712L672 712L672 0L446 0Z"  horiz-adv-x="741" vert-adv-y="1000"  />

      
      <glyph glyph-name="uni0410" unicode="&#x0410;" d="M423 713L694 0L530 0L474 159L209 159L151 0L-9 0L262 713L423 713M436 273L342 538L247 273L436 273Z"  horiz-adv-x="685" vert-adv-y="1000"  />

      
      <glyph glyph-name="uni0411" unicode="&#x0411;" d="M226 456L412 456Q525 456 595 398.50Q665 341 665 229Q665 115 594.50 57.50Q524 0 404 0L71 0L71 712L599 712L599 583L226 583L226 456M513 231Q513 333 391 333L226 333L226 128L392 128Q513 128 513 231Z"  horiz-adv-x="704" vert-adv-y="1000"  />

      
      <glyph glyph-name="uni0412" unicode="&#x0412;" d="M68 712L405 712Q505 712 568.50 667.50Q632 623 632 533Q632 483 606 444.50Q580 406 535 386Q665 349 665 212Q665 111 597 55.50Q529 0 424 0L68 0L68 712M220 591L220 424L362 424Q480 424 480 507Q480 556 448 573.50Q416 591 362 591L220 591M220 318L220 124L377 124Q438 124 473.50 144Q509 164 509 221Q509 279 471.50 298.50Q434 318 369 318L220 318Z"  horiz-adv-x="704" vert-adv-y="1000"  />

      
      <glyph glyph-name="uni0413" unicode="&#x0413;" d="M565 712L565 579L225 579L225 0L69 0L69 712L565 712Z"  horiz-adv-x="574" vert-adv-y="1000"  />

      
      <glyph glyph-name="uni0414" unicode="&#x0414;" d="M762-183L611-183L611 0L159 0L159-183L8-183L8 133L62 133Q123 215 149.50 328.50Q176 442 176 604L176 712L683 712L683 133L762 133L762-183M527 133L527 585L331 585L331 573Q331 306 236 133L527 133Z"  horiz-adv-x="778" vert-adv-y="1000"  />

      
      <glyph glyph-name="uni0415" unicode="&#x0415;" d="M603 712L603 584L224 584L224 429L572 429L572 306L224 306L224 131L610 131L610 0L69 0L69 712L603 712Z"  horiz-adv-x="648" vert-adv-y="1000"  />

      
      <glyph glyph-name="uni0416" unicode="&#x0416;" d="M375 310L184 0L-9 0L276 421L17 712L205 712L452 421L452 712L602 712L602 421L849 712L1037 712L778 421L1063 0L869 0L679 310L602 223L602 0L452 0L452 223L375 310Z"  horiz-adv-x="1054" vert-adv-y="1000"  />

      
      <glyph glyph-name="uni0417" unicode="&#x0417;" d="M610 219Q610 116 530 50Q450-16 330-16Q185-16 103.50 50.50Q22 117 21 238L176 238Q178 170 220 137Q262 104 330 104Q384 104 418.50 136.50Q453 169 453 218Q453 318 319 318L265 318L265 424Q277 423 307 423Q436 423 436 520Q436 561 407 583.50Q378 606 329 606Q271 606 236 578.50Q201 551 197 500L49 500Q51 613 130 670Q209 727 330 727Q440 727 511.50 672.50Q583 618 583 530Q583 477 553 437.50Q523 398 475 387Q534 378 572 332Q610 286 610 219Z"  horiz-adv-x="649" vert-adv-y="1000"  />

      
      <glyph glyph-name="uni0418" unicode="&#x0418;" d="M672 712L672 0L516 0L516 494L513 494L245 0L69 0L69 712L225 712L225 219L228 219L496 712L672 712Z"  horiz-adv-x="741" vert-adv-y="1000"  />

      
      <glyph glyph-name="uni0419" unicode="&#x0419;" d="M672 712L672 0L516 0L516 494L513 494L245 0L69 0L69 712L225 712L225 219L228 219L496 712L672 712M478 904L534 904Q534 760 371 760Q208 760 208 904L264 904Q277 838 371 838Q465 838 478 904Z"  horiz-adv-x="741" vert-adv-y="1000"  />

      
      <glyph glyph-name="uni041A" unicode="&#x041A;" d="M702 712L423 431L728 0L532 0L316 320L225 230L225 0L71 0L71 712L225 712L225 416L505 712L702 712Z"  horiz-adv-x="722" vert-adv-y="1000"  />

      
      <glyph glyph-name="uni041B" unicode="&#x041B;" d="M656 712L656 0L500 0L500 579L309 579L299 277Q289-14 101-14Q49-14 13-2L13 124Q37 112 68 112Q105 112 125 145.50Q145 179 148 279L160 712L656 712Z"  horiz-adv-x="722" vert-adv-y="1000"  />

      
      <glyph glyph-name="uni041C" unicode="&#x041C;" d="M69 0L69 712L292 712L458 223L620 712L838 712L838 0L691 0L691 506L516 0L395 0L218 501L218 0L69 0Z"  horiz-adv-x="907" vert-adv-y="1000"  />

      
      <glyph glyph-name="uni041D" unicode="&#x041D;" d="M672 712L672 0L516 0L516 307L225 307L225 0L69 0L69 712L225 712L225 444L516 444L516 712L672 712Z"  horiz-adv-x="741" vert-adv-y="1000"  />

      
      <glyph glyph-name="uni041E" unicode="&#x041E;" d="M391 729Q547 729 643.50 625.50Q740 522 740 355Q740 188 643.50 85.50Q547-17 390-17Q232-17 135 85.50Q38 188 38 355Q38 524 134.50 626.50Q231 729 391 729M389 601Q301 601 248.50 535Q196 469 196 358Q196 243 248 178Q300 113 391 112Q480 112 531 178Q582 244 582 358Q582 470 530 535.50Q478 601 389 601Z"  horiz-adv-x="778" vert-adv-y="1000"  />

      
      <glyph glyph-name="uni041F" unicode="&#x041F;" d="M672 712L672 0L516 0L516 579L225 579L225 0L69 0L69 712L672 712Z"  horiz-adv-x="741" vert-adv-y="1000"  />

      
      <glyph glyph-name="uni0420" unicode="&#x0420;" d="M70 712L377 712Q497 712 567.50 654.50Q638 597 638 483Q638 371 568 313.50Q498 256 385 256L225 256L225 0L70 0L70 712M225 584L225 379L364 379Q486 379 486 481Q486 584 365 584L225 584Z"  horiz-adv-x="667" vert-adv-y="1000"  />

      
      <glyph glyph-name="uni0421" unicode="&#x0421;" d="M705 275Q693 141 611 62Q529-17 386-17Q231-17 136.50 85.50Q42 188 42 357Q42 517 137.50 623Q233 729 392 729Q519 729 605 657Q691 585 700 474L547 474Q535 533 493.50 565.50Q452 598 389 598Q324 598 279.50 561.50Q235 525 217 472Q199 419 199 356Q199 246 250 180.50Q301 115 387 115Q530 115 550 275L705 275Z"  horiz-adv-x="741" vert-adv-y="1000"  />

      
      <glyph glyph-name="uni0422" unicode="&#x0422;" d="M598 712L598 579L384 579L384 0L227 0L227 579L13 579L13 712L598 712Z"  horiz-adv-x="611" vert-adv-y="1000"  />

      
      <glyph glyph-name="uni0423" unicode="&#x0423;" d="M102 3L102 135Q140 119 177 119Q211 119 230 136.50Q249 154 249 180Q249 189 247 198Q245 207 241 218Q237 229 234 235.50Q231 242 224.50 255Q218 268 216 272L7 712L180 712L341 337L499 712L666 712L426 188Q375 76 324 31.50Q273-13 189-13Q142-13 102 3Z"  horiz-adv-x="667" vert-adv-y="1000"  />

      
      <glyph glyph-name="uni0424" unicode="&#x0424;" d="M810 364Q810 233 726 158Q642 83 501 78L501 0L347 0L347 78Q206 83 122 158Q38 233 38 364Q38 491 121.50 564Q205 637 347 642L347 712L501 712L501 642Q643 637 726.50 564Q810 491 810 364M660 364Q660 440 619 483Q578 526 501 529L501 195Q575 198 617.50 244.50Q660 291 660 364M347 195L347 529Q270 526 229.50 483Q189 440 189 364Q189 291 231 244.50Q273 198 347 195Z"  horiz-adv-x="848" vert-adv-y="1000"  />

      
      <glyph glyph-name="uni0425" unicode="&#x0425;" d="M651 712L422 372L672 0L485 0L329 247L171 0L-7 0L244 372L12 712L194 712L336 483L479 712L651 712Z"  horiz-adv-x="667" vert-adv-y="1000"  />

      
      <glyph glyph-name="uni0426" unicode="&#x0426;" d="M749-183L598-183L598 0L67 0L67 712L223 712L223 133L514 133L514 712L670 712L670 133L749 133L749-183Z"  horiz-adv-x="757" vert-adv-y="1000"  />

      
      <glyph glyph-name="uni0427" unicode="&#x0427;" d="M294 274Q169 274 104 332.50Q39 391 39 523L39 712L195 712L195 521Q195 457 220.50 430.50Q246 404 306 404Q355 404 447 420L447 712L603 712L603 0L447 0L447 294Q350 274 294 274Z"  horiz-adv-x="667" vert-adv-y="1000"  />

      
      <glyph glyph-name="uni0428" unicode="&#x0428;" d="M67 0L67 712L223 712L223 133L460 133L460 712L616 712L616 133L853 133L853 712L1009 712L1009 0L67 0Z"  horiz-adv-x="1075" vert-adv-y="1000"  />

      
      <glyph glyph-name="uni0429" unicode="&#x0429;" d="M1088-183L937-183L937 0L67 0L67 712L223 712L223 133L460 133L460 712L616 712L616 133L853 133L853 712L1009 712L1009 133L1088 133L1088-183Z"  horiz-adv-x="1092" vert-adv-y="1000"  />

      
      <glyph glyph-name="uni042A" unicode="&#x042A;" d="M206 578L13 578L13 712L361 712L361 456L529 456Q642 456 712 398.50Q782 341 782 229Q782 115 711.50 57.50Q641 0 521 0L206 0L206 578M630 231Q630 333 508 333L361 333L361 128L509 128Q630 128 630 231Z"  horiz-adv-x="806" vert-adv-y="1000"  />

      
      <glyph glyph-name="uni042B" unicode="&#x042B;" d="M607 229Q607 115 536.50 57.50Q466 0 346 0L69 0L69 712L224 712L224 456L354 456Q467 456 537 398.50Q607 341 607 229M455 231Q455 333 333 333L224 333L224 128L334 128Q455 128 455 231M683 712L839 712L839 0L683 0L683 712Z"  horiz-adv-x="907" vert-adv-y="1000"  />

      
      <glyph glyph-name="uni042C" unicode="&#x042C;" d="M643 229Q643 115 572.50 57.50Q502 0 382 0L67 0L67 712L222 712L222 456L390 456Q503 456 573 398.50Q643 341 643 229M491 231Q491 333 369 333L222 333L222 128L370 128Q491 128 491 231Z"  horiz-adv-x="667" vert-adv-y="1000"  />

      
      <glyph glyph-name="uni042D" unicode="&#x042D;" d="M698 357Q698 188 603.50 85.50Q509-17 354-17Q218-17 137 55Q56 127 38 251L194 251Q222 115 353 115Q429 115 478 167Q527 219 538 309L277 309L277 432L533 432Q517 506 472 552Q427 598 351 598Q293 598 252.50 569.50Q212 541 197 489L42 489Q56 594 140.50 661.50Q225 729 348 729Q507 729 602.50 623Q698 517 698 357Z"  horiz-adv-x="741" vert-adv-y="1000"  />

      
      <glyph glyph-name="uni042E" unicode="&#x042E;" d="M659 729Q802 729 891 625.50Q980 522 980 355Q980 189 891 86Q802-17 658-17Q522-17 434.50 73Q347 163 336 312L225 312L225 0L69 0L69 712L225 712L225 439L340 439Q362 573 447 651Q532 729 659 729M777.50 536Q777.50 536 755.25 568.50Q733 601 657 601Q581 601 536.50 535Q492 469 492 358Q492 243 536.50 178Q581 113 659 112Q735 112 778.50 178Q822 244 822 358Q822 471 777.50 536Z"  horiz-adv-x="1018" vert-adv-y="1000"  />

      
      <glyph glyph-name="uni042F" unicode="&#x042F;" d="M407 279L199 0L3 0L224 288Q150 307 105.50 359.50Q61 412 61 494Q61 602 130.50 657Q200 712 306 712L655 712L655 0L500 0L500 279L407 279M500 392L500 589L345 589Q285 589 249.50 569Q214 549 214 493Q214 433 250.50 412.50Q287 392 352 392L500 392Z"  horiz-adv-x="722" vert-adv-y="1000"  />

      
      <glyph glyph-name="uni0430" unicode="&#x0430;" d="M534 0L390 0Q383 20 380 50Q315-15 213-15Q127-15 78 26.50Q29 68 29 141Q29 174 37.50 199Q46 224 65.50 241Q85 258 102.50 269Q120 280 151 287Q182 294 201 297.50Q220 301 254 305Q329 315 354.50 326Q380 337 380 367Q380 436 287 436Q238 436 215 418.50Q192 401 185 357L52 357Q64 531 291 531Q516 531 516 363L516 140Q516 42 534 0M379 251Q354 236 279 224Q216 214 197 199Q175 180 175 147Q175 115 195.50 96.50Q216 78 253 78Q310 78 344.50 108.50Q379 139 379 193L379 251Z"  horiz-adv-x="574" vert-adv-y="1000"  />

      
      <glyph glyph-name="uni0431" unicode="&#x0431;" d="M570 252Q570 130 497.50 57.50Q425-15 301-15Q234-15 184 12.50Q134 40 106 87Q78 134 64.50 188Q51 242 51 302Q51 356 54.50 397.50Q58 439 70 490.50Q82 542 103.50 579Q125 616 165 648Q205 680 259 694Q280 700 319.50 704Q359 708 382.50 714.50Q406 721 412 734L547 734Q542 696 526 668.50Q510 641 490 625.50Q470 610 437 599Q404 588 377 584Q350 580 307 576Q147 561 126 370L129 370Q151 431 201.50 473.50Q252 516 333 516Q434 516 502 443Q570 370 570 252M428 253Q428 328 396.50 369.50Q365 411 309 411Q256 411 224.50 369Q193 327 193 252Q193 175 224.50 133.50Q256 92 311 92Q366 92 397 134Q428 176 428 253Z"  horiz-adv-x="611" vert-adv-y="1000"  />

      
      <glyph glyph-name="uni0432" unicode="&#x0432;" d="M52 516L349 516Q422 516 468 483.50Q514 451 514 386Q514 312 444 280Q538 253 538 154Q538 81 488.50 40.50Q439 0 363 0L52 0L52 516M192 309L286 309Q370 309 370 368Q370 402 347.50 414Q325 426 286 426L192 426L192 309M192 92L297 92Q341 92 366 106Q391 120 391 160Q391 201 364 215Q337 229 291 229L192 229L192 92Z"  horiz-adv-x="574" vert-adv-y="1000"  />

      
      <glyph glyph-name="uni0433" unicode="&#x0433;" d="M446 407L197 407L197 0L56 0L56 516L446 516L446 407Z"  horiz-adv-x="453" vert-adv-y="1000"  />

      
      <glyph glyph-name="uni0434" unicode="&#x0434;" d="M613-152L480-152L480 0L140 0L140-152L7-152L7 109L69 109Q94 157 114 249Q134 341 134 426L134 516L546 516L546 109L613 109L613-152M405 109L405 411L266 411L266 398Q266 323 247.50 239.50Q229 156 208 109L405 109Z"  horiz-adv-x="628" vert-adv-y="1000"  />

      
      <glyph glyph-name="uni0435" unicode="&#x0435;" d="M539 160Q515 77 450.50 31Q386-15 297-15Q178-15 105.50 59Q33 133 33 255Q33 375 106 453Q179 531 292 531Q409 531 478 451.50Q547 372 547 236L547 222L177 222Q178 155 209.50 120Q241 85 298 85Q373 85 403 160L539 160M403 312Q398 363 370 395.50Q342 428 292 428Q245 428 214 397Q183 366 177 312L403 312Z"  horiz-adv-x="574" vert-adv-y="1000"  />

      
      <glyph glyph-name="uni0436" unicode="&#x0436;" d="M289 217L164 0L-3 0L196 320L20 516L182 516L344 311L344 516L478 516L478 311L640 516L802 516L623 317L825 0L658 0L533 217L478 155L478 0L344 0L344 155L289 217Z"  horiz-adv-x="822" vert-adv-y="1000"  />

      
      <glyph glyph-name="uni0437" unicode="&#x0437;" d="M505 153Q505 71 440 28Q375-15 264-15Q159-15 91 30Q23 75 22 168L157 168Q165 82 267 82Q313 82 336 101Q359 120 359 151Q359 223 270 223L215 223L215 312L252 312Q300 312 325 327Q350 342 350 379Q350 404 329 420.50Q308 437 269 437Q224 437 200.50 421Q177 405 171 366L39 366Q42 450 108 490.50Q174 531 272 531Q488 531 488 392Q488 350 459 317Q430 284 395 278L395 276Q441 270 473 242Q505 214 505 153Z"  horiz-adv-x="537" vert-adv-y="1000"  />

      
      <glyph glyph-name="uni0438" unicode="&#x0438;" d="M537 0L401 0L401 349L217 0L56 0L56 516L192 516L192 167L376 516L537 516L537 0Z"  horiz-adv-x="593" vert-adv-y="1000"  />

      
      <glyph glyph-name="uni0439" unicode="&#x0439;" d="M403 712L459 712Q459 568 296 568Q133 568 133 712L189 712Q202 646 296 646Q390 646 403 712M537 0L401 0L401 349L217 0L56 0L56 516L192 516L192 167L376 516L537 516L537 0Z"  horiz-adv-x="593" vert-adv-y="1000"  />

      
      <glyph glyph-name="uni043A" unicode="&#x043A;" d="M581 0L409 0L260 222L197 158L197 0L58 0L58 516L197 516L197 312L386 516L553 516L353 316L581 0Z"  horiz-adv-x="574" vert-adv-y="1000"  />

      
      <glyph glyph-name="uni043B" unicode="&#x043B;" d="M534 0L393 0L393 407L257 407L251 225Q250 195 249 177.50Q248 160 243.50 131Q239 102 233 84.50Q227 67 214.50 45.50Q202 24 185.50 12.50Q169 1 143-7.50Q117-16 85-16Q33-16 8-6L8 107Q33 102 48 102Q109 102 112 209L120 516L534 516L534 0Z"  horiz-adv-x="593" vert-adv-y="1000"  />

      
      <glyph glyph-name="uni043C" unicode="&#x043C;" d="M666 0L532 0L532 392L529 392L428 0L294 0L193 392L190 392L190 0L56 0L56 516L262 516L359 141L363 141L460 516L666 516L666 0Z"  horiz-adv-x="722" vert-adv-y="1000"  />

      
      <glyph glyph-name="uni043D" unicode="&#x043D;" d="M537 0L396 0L396 217L197 217L197 0L56 0L56 516L197 516L197 329L396 329L396 516L537 516L537 0Z"  horiz-adv-x="593" vert-adv-y="1000"  />

      
      <glyph glyph-name="uni043E" unicode="&#x043E;" d="M572 258Q572 134 499.50 59Q427-16 306-16Q185-16 112 59Q39 134 39 258Q39 381 113 456Q187 531 308 531Q427 531 499.50 456Q572 381 572 258M430 259Q430 336 396.50 379.50Q363 423 304 423Q247 423 214 379Q181 335 181 258Q181 179 214 135Q247 91 306 91Q365 91 397.50 135.50Q430 180 430 259Z"  horiz-adv-x="611" vert-adv-y="1000"  />

      
      <glyph glyph-name="uni043F" unicode="&#x043F;" d="M537 0L396 0L396 407L197 407L197 0L56 0L56 516L537 516L537 0Z"  horiz-adv-x="593" vert-adv-y="1000"  />

      
      <glyph glyph-name="uni0440" unicode="&#x0440;" d="M188 516L188 452Q244 530 348 530Q452 530 515 455Q578 380 578 255Q578 134 516.50 60.50Q455-13 354-13Q250-13 195 64L195-183L54-183L54 516L188 516M313 416Q255 416 222.50 374Q190 332 190 257Q190 182 223 140Q256 98 314 98Q371 98 403.50 140Q436 182 436 255Q436 330 403 373Q370 416 313 416Z"  horiz-adv-x="611" vert-adv-y="1000"  />

      
      <glyph glyph-name="uni0441" unicode="&#x0441;" d="M546 199Q533 99 467.50 43Q402-13 299-13Q180-13 108 60Q36 133 36 254Q36 379 108.50 455Q181 531 301 531Q404 531 469 478.50Q534 426 543 336L404 336Q388 425 302 425Q244 425 211.50 380.50Q179 336 179 257Q179 180 210.50 137.50Q242 95 299 95Q392 95 409 199L546 199Z"  horiz-adv-x="574" vert-adv-y="1000"  />

      
      <glyph glyph-name="uni0442" unicode="&#x0442;" d="M491 407L321 407L321 0L180 0L180 407L10 407L10 516L491 516L491 407Z"  horiz-adv-x="500" vert-adv-y="1000"  />

      
      <glyph glyph-name="uni0443" unicode="&#x0443;" d="M523 516L333 2Q319-37 312.50-52.50Q306-68 292.50-96Q279-124 267.50-135Q256-146 236.50-160Q217-174 192.50-179Q168-184 136-184Q110-184 41-183L41-66L110-66Q145-66 163.50-48Q182-30 182 3Q182 11 178 23L-9 516L144 516L262 165L376 516L523 516Z"  horiz-adv-x="519" vert-adv-y="1000"  />

      
      <glyph glyph-name="uni0444" unicode="&#x0444;" d="M810 266Q810 145 760 65.50Q710-14 603-14Q572-14 542 0Q512 14 496 34L493 34L493-183L353-183L353 34L350 34Q334 14 304 0Q274-14 243-14Q136-14 86 65.50Q36 145 36 266Q36 388 90 459.50Q144 531 236 531Q278 531 308 516Q338 501 350 478L353 478L353 712L493 712L493 478L496 478Q508 501 538 516Q568 531 610 531Q702 531 756 459.50Q810 388 810 266M670 263Q670 422 574 422Q548 422 525 408.50Q502 395 493 367L493 145Q497 125 518.50 110Q540 95 570 95Q670 95 670 263M353 145L353 367Q344 395 321 408.50Q298 422 272 422Q176 422 176 263Q176 95 276 95Q306 95 327.50 110Q349 125 353 145Z"  horiz-adv-x="846" vert-adv-y="1000"  />

      
      <glyph glyph-name="uni0445" unicode="&#x0445;" d="M517 516L347 275L538 0L376 0L267 167L159 0L-2 0L186 272L15 516L177 516L269 378L360 516L517 516Z"  horiz-adv-x="537" vert-adv-y="1000"  />

      
      <glyph glyph-name="uni0446" unicode="&#x0446;" d="M591-152L458-152L458 0L53 0L53 516L194 516L194 109L385 109L385 516L526 516L526 109L591 109L591-152Z"  horiz-adv-x="603" vert-adv-y="1000"  />

      
      <glyph glyph-name="uni0447" unicode="&#x0447;" d="M378 302L378 516L519 516L519 0L378 0L378 203Q286 180 213 180Q129 180 84.50 227.50Q40 275 40 359L40 516L181 516L181 388Q181 331 197.50 309Q214 287 260 287Q323 287 378 302Z"  horiz-adv-x="574" vert-adv-y="1000"  />

      
      <glyph glyph-name="uni0448" unicode="&#x0448;" d="M787 0L56 0L56 516L197 516L197 109L351 109L351 516L492 516L492 109L646 109L646 516L787 516L787 0Z"  horiz-adv-x="843" vert-adv-y="1000"  />

      
      <glyph glyph-name="uni0449" unicode="&#x0449;" d="M53 0L53 516L194 516L194 109L345 109L345 516L486 516L486 109L637 109L637 516L778 516L778 109L843 109L843-152L710-152L710 0L53 0Z"  horiz-adv-x="855" vert-adv-y="1000"  />

      
      <glyph glyph-name="uni044A" unicode="&#x044A;" d="M162 407L8 407L8 516L302 516L302 339L439 339Q521 339 574.50 295Q628 251 628 170Q628 87 574.50 43.50Q521 0 433 0L162 0L162 407M302 243L302 98L399 98Q485 98 485 170Q485 206 461 224.50Q437 243 398 243L302 243Z"  horiz-adv-x="648" vert-adv-y="1000"  />

      
      <glyph glyph-name="uni044B" unicode="&#x044B;" d="M553 516L694 516L694 0L553 0L553 516M488 170Q488 87 434.50 43.50Q381 0 293 0L47 0L47 516L187 516L187 339L299 339Q381 339 434.50 295Q488 251 488 170M187 243L187 98L259 98Q345 98 345 170Q345 206 321 224.50Q297 243 258 243L187 243Z"  horiz-adv-x="741" vert-adv-y="1000"  />

      
      <glyph glyph-name="uni044C" unicode="&#x044C;" d="M517 170Q517 87 463.50 43.50Q410 0 322 0L51 0L51 516L191 516L191 339L328 339Q410 339 463.50 295Q517 251 517 170M191 243L191 98L288 98Q374 98 374 170Q374 206 350 224.50Q326 243 287 243L191 243Z"  horiz-adv-x="537" vert-adv-y="1000"  />

      
      <glyph glyph-name="uni044D" unicode="&#x044D;" d="M538 254Q538 133 466 60Q394-13 275-13Q178-13 114 37Q50 87 32 178L170 178Q193 95 275 95Q325 95 355.50 128Q386 161 393 222L227 222L227 312L390 312Q380 366 349.50 395.50Q319 425 272 425Q192 425 173 348L32 348Q45 433 109 482Q173 531 273 531Q393 531 465.50 455Q538 379 538 254Z"  horiz-adv-x="574" vert-adv-y="1000"  />

      
      <glyph glyph-name="uni044E" unicode="&#x044E;" d="M296 220L197 220L197 0L56 0L56 516L197 516L197 320L299 320Q315 418 380.50 474.50Q446 531 548 531Q663 531 730 456.50Q797 382 797 258Q797 133 729.50 58.50Q662-16 546-16Q438-16 372 47.50Q306 111 296 220M655 259Q655 337 626 380Q597 423 544 423Q493 423 464.50 379.50Q436 336 436 258Q436 178 464.50 134.50Q493 91 546 91Q598 91 626.50 135Q655 179 655 259Z"  horiz-adv-x="836" vert-adv-y="1000"  />

      
      <glyph glyph-name="uni044F" unicode="&#x044F;" d="M517 0L376 0L376 191L316 191L168 0L-6 0L165 203Q108 212 71 254.50Q34 297 34 359Q34 427 82 471.50Q130 516 205 516L517 516L517 0M376 293L376 414L263 414Q216 414 197 399.50Q178 385 178 354Q178 322 196.50 307.50Q215 293 263 293L376 293Z"  horiz-adv-x="574" vert-adv-y="1000"  />

      
      <glyph glyph-name="uni0451" unicode="&#x0451;" d="M459 712L459 596L326 596L326 712L459 712M249 712L249 596L116 596L116 712L249 712M539 160Q515 77 450.50 31Q386-15 297-15Q178-15 105.50 59Q33 133 33 255Q33 375 106 453Q179 531 292 531Q409 531 478 451.50Q547 372 547 236L547 222L177 222Q178 155 209.50 120Q241 85 298 85Q373 85 403 160L539 160M403 312Q398 363 370 395.50Q342 428 292 428Q245 428 214 397Q183 366 177 312L403 312Z"  horiz-adv-x="574" vert-adv-y="1000"  />

      
      <glyph glyph-name="uni0452" unicode="&#x0452;" d="M539 86Q539-177 247-188L247-74Q325-65 361-29.50Q397 6 397 95L397 164Q397 217 378 245Q359 273 306 273Q242 273 218.50 232Q195 191 195 123L195 0L55 0L55 435L1 435L1 531L55 531L55 712L195 712L195 531L443 531L443 435L195 435L195 307Q256 389 358 389Q539 389 539 198L539 86Z"  horiz-adv-x="574" vert-adv-y="1000"  />

      
      <glyph glyph-name="uni0453" unicode="&#x0453;" d="M446 407L197 407L197 0L56 0L56 516L446 516L446 407M392 724L243 581L144 581L234 724L392 724Z"  horiz-adv-x="453" vert-adv-y="1000"  />

      
      <glyph glyph-name="uni0454" unicode="&#x0454;" d="M542 178Q524 87 460 37Q396-13 299-13Q180-13 108 60Q36 133 36 254Q36 379 108.50 455Q181 531 301 531Q401 531 465 482Q529 433 542 348L401 348Q382 425 302 425Q255 425 224.50 395.50Q194 366 184 312L347 312L347 222L181 222Q188 161 218.50 128Q249 95 299 95Q381 95 404 178L542 178Z"  horiz-adv-x="574" vert-adv-y="1000"  />

      
      <glyph glyph-name="uni0455" unicode="&#x0455;" d="M490 366L358 366Q352 405 328.50 421Q305 437 260 437Q222 437 201 423.50Q180 410 180 386Q180 358 204 347Q228 336 290 323Q301 321 306 320Q342 313 363.50 307.50Q385 302 416 289.50Q447 277 464 261.50Q481 246 494 220Q507 194 507 160Q507 79 444 32Q381-15 271-15Q166-15 98 30Q30 75 29 168L164 168Q171 82 274 82Q317 82 342.50 99.50Q368 117 368 146Q368 175 345 187Q322 199 260 213Q255 214 252 215Q245 217 221 222Q197 227 187.50 229.50Q178 232 156.50 238Q135 244 125 249.50Q115 255 98.50 263.50Q82 272 74 282Q66 292 56.50 305.50Q47 319 43.50 336Q40 353 40 373Q40 449 99 490Q158 531 266 531Q363 531 425 491Q487 451 490 366Z"  horiz-adv-x="537" vert-adv-y="1000"  />

      
      <glyph glyph-name="uni0456" unicode="&#x0456;" d="M200 712L200 592L58 592L58 712L200 712M200 516L200 0L58 0L58 516L200 516Z"  horiz-adv-x="258" vert-adv-y="1000"  />

      
      <glyph glyph-name="uni0457" unicode="&#x0457;" d="M200 516L200 0L58 0L58 516L200 516M299 712L299 596L166 596L166 712L299 712M90 712L90 596L-43 596L-43 712L90 712Z"  horiz-adv-x="258" vert-adv-y="1000"  />

      
      <glyph glyph-name="uni0458" unicode="&#x0458;" d="M210 516L210-1Q210-103 173.50-145Q137-187 38-187Q10-187-19-185L-19-71Q-7-72 7-72Q29-72 41.50-68Q54-64 60-53Q66-42 67-31Q68-20 68 3L68 516L210 516M210 712L210 590L68 590L68 712L210 712Z"  horiz-adv-x="278" vert-adv-y="1000"  />

      
      <glyph glyph-name="uni0459" unicode="&#x0459;" d="M803 165Q803 83 749.50 41.50Q696 0 608 0L371 0L371 407L254 407L248 225Q247 195 246 177.50Q245 160 240.50 131Q236 102 230 84.50Q224 67 211.50 45.50Q199 24 182.50 12.50Q166 1 140-7.50Q114-16 82-16Q30-16 5-6L5 107Q30 102 45 102Q106 102 109 209L117 516L512 516L512 329L614 329Q696 329 749.50 287Q803 245 803 165M660 165Q660 229 573 229L512 229L512 101L573 101Q616 101 638 115Q660 129 660 165Z"  horiz-adv-x="822" vert-adv-y="1000"  />

      
      <glyph glyph-name="uni045A" unicode="&#x045A;" d="M366 229L197 229L197 0L56 0L56 516L197 516L197 329L366 329L366 516L507 516L507 329L614 329Q696 329 749.50 287Q803 245 803 165Q803 83 749.50 41.50Q696 0 608 0L366 0L366 229M507 229L507 101L573 101Q616 101 638 115Q660 129 660 165Q660 229 573 229L507 229Z"  horiz-adv-x="822" vert-adv-y="1000"  />

      
      <glyph glyph-name="uni045B" unicode="&#x045B;" d="M539 0L397 0L397 164Q397 217 378 245Q359 273 306 273Q242 273 218.50 232Q195 191 195 123L195 0L55 0L55 435L2 435L2 531L55 531L55 712L195 712L195 531L444 531L444 435L195 435L195 307Q256 389 358 389Q539 389 539 198L539 0Z"  horiz-adv-x="574" vert-adv-y="1000"  />

      
      <glyph glyph-name="uni045C" unicode="&#x045C;" d="M472 724L323 581L224 581L314 724L472 724M581 0L409 0L260 219L197 155L197 0L58 0L58 516L197 516L197 312L386 516L553 516L356 317L581 0Z"  horiz-adv-x="574" vert-adv-y="1000"  />

      
      <glyph glyph-name="uni045E" unicode="&#x045E;" d="M374 712L430 712Q430 568 267 568Q104 568 104 712L160 712Q173 646 267 646Q361 646 374 712M523 516L333 2Q319-37 312.50-52.50Q306-68 292.50-96Q279-124 267.50-135Q256-146 236.50-160Q217-174 192.50-179Q168-184 136-184Q110-184 41-183L41-66L110-66Q145-66 163.50-48Q182-30 182 3Q182 11 178 23L-9 516L144 516L262 165L376 516L523 516Z"  horiz-adv-x="519" vert-adv-y="1000"  />

      
      <glyph glyph-name="uni045F" unicode="&#x045F;" d="M537 0L364 0L364-152L230-152L230 0L56 0L56 516L197 516L197 109L396 109L396 516L537 516L537 0Z"  horiz-adv-x="593" vert-adv-y="1000"  />

      
      <glyph glyph-name="uni0490" unicode="&#x0490;" d="M566 871L566 579L225 579L225 0L69 0L69 712L415 712L415 871L566 871Z"  horiz-adv-x="574" vert-adv-y="1000"  />

      
      <glyph glyph-name="uni0491" unicode="&#x0491;" d="M446 658L446 407L197 407L197 0L56 0L56 516L312 516L312 658L446 658Z"  horiz-adv-x="453" vert-adv-y="1000"  />

      
      <glyph glyph-name="uni2013" unicode="&#x2013;" d="M500 335L500 209L0 209L0 335L500 335Z"  horiz-adv-x="500" vert-adv-y="1000"  />

      
      <glyph glyph-name="uni2014" unicode="&#x2014;" d="M1000 335L1000 209L0 209L0 335L1000 335Z"  horiz-adv-x="1000" vert-adv-y="1000"  />

      
      <glyph glyph-name="uni2018" unicode="&#x2018;" d="M218 390L60 390L60 512Q60 598 95.50 648Q131 698 218 712L218 642Q150 623 147 546L218 546L218 390Z"  horiz-adv-x="278" vert-adv-y="1000"  />

      
      <glyph glyph-name="uni2019" unicode="&#x2019;" d="M218 590Q218 504 182.50 454Q147 404 60 390L60 460Q128 479 131 556L60 556L60 712L218 712L218 590Z"  horiz-adv-x="278" vert-adv-y="1000"  />

      
      <glyph glyph-name="uni201A" unicode="&#x201A;" d="M218 156L218 34Q218-52 182.50-102Q147-152 60-166L60-96Q128-77 131 0L60 0L60 156L218 156Z"  horiz-adv-x="278" vert-adv-y="1000"  />

      
      <glyph glyph-name="uni201C" unicode="&#x201C;" d="M408 395L265 395L265 520Q265 596 300.50 648Q336 700 408 712L408 646Q344 627 341 548L408 548L408 395M196 395L53 395L53 520Q53 596 88.50 648Q124 700 196 712L196 646Q132 627 129 548L196 548L196 395Z"  horiz-adv-x="463" vert-adv-y="1000"  />

      
      <glyph glyph-name="uni201D" unicode="&#x201D;" d="M410 712L410 587Q410 511 374.50 459Q339 407 267 395L267 461Q331 480 334 559L267 559L267 712L410 712M198 712L198 587Q198 511 162.50 459Q127 407 55 395L55 461Q119 480 122 559L55 559L55 712L198 712Z"  horiz-adv-x="463" vert-adv-y="1000"  />

      
      <glyph glyph-name="uni201E" unicode="&#x201E;" d="M409 154L409 29Q409-47 373.50-99Q338-151 266-163L266-97Q330-78 333 1L266 1L266 154L409 154M197 154L197 29Q197-47 161.50-99Q126-151 54-163L54-97Q118-78 121 1L54 1L54 154L197 154Z"  horiz-adv-x="463" vert-adv-y="1000"  />

      
      <glyph glyph-name="uni2020" unicode="&#x2020;" d="M532 517L532 395L346 395L346-164L208-164L208 395L24 395L24 517L208 517L208 712L346 712L346 517L532 517Z"  horiz-adv-x="556" vert-adv-y="1000"  />

      
      <glyph glyph-name="uni2021" unicode="&#x2021;" d="M532 522L532 404L346 404L346 144L532 144L532 26L346 26L346-164L209-164L209 26L24 26L24 144L209 144L209 404L24 404L24 522L209 522L209 712L346 712L346 522L532 522Z"  horiz-adv-x="556" vert-adv-y="1000"  />

      
      <glyph glyph-name="uni2022" unicode="&#x2022;" d="M251 534Q324 534 376.50 482Q429 430 429 356Q429 282 376.50 230Q324 178 251 178Q177 178 125 230Q73 282 73 356Q73 430 125 482Q177 534 251 534Z"  horiz-adv-x="501" vert-adv-y="1000"  />

      
      <glyph glyph-name="uni2026" unicode="&#x2026;" d="M100 0L100 134L233 134L233 0L100 0M433 0L433 134L566 134L566 0L433 0M766 0L766 134L899 134L899 0L766 0Z"  horiz-adv-x="1000" vert-adv-y="1000"  />

      
      <glyph glyph-name="uni2030" unicode="&#x2030;" d="M656 720L218-28L132-28L572 720L656 720M587 329Q655 329 692.50 285.50Q730 242 730 163Q730 77 693 32Q656-13 585-13Q514-13 476.50 30.50Q439 74 439 156Q439 241 477 285Q515 329 587 329M933 330Q1002 330 1039.50 286Q1077 242 1077 162Q1077 77 1039.50 32Q1002-13 932-13Q861-13 823 30.50Q785 74 785 156Q785 240 823.50 285Q862 330 933 330M216 705Q361 705 361 533Q361 452 322.50 407Q284 362 214 362Q144 362 107 406Q70 450 70 532Q70 615 108 660Q146 705 216 705M585 264Q528 264 528 158Q528 102 541.50 77.50Q555 53 586 53Q640 53 640 162Q640 264 585 264M931 265Q874 265 874 157Q874 53 932 53Q987 53 987 161Q987 265 931 265M214 640Q159 640 159 528Q159 428 215 428Q270 428 270 536Q270 640 214 640Z"  horiz-adv-x="1147" vert-adv-y="1000"  />

      
      <glyph glyph-name="uni2039" unicode="&#x2039;" d="M193 453L193 334L104 265L193 195L193 74L37 199L37 331L193 453Z"  horiz-adv-x="241" vert-adv-y="1000"  />

      
      <glyph glyph-name="uni203A" unicode="&#x203A;" d="M47 455L204 331L204 197L47 76L47 193L136 264L47 334L47 455Z"  horiz-adv-x="241" vert-adv-y="1000"  />

      
      <glyph glyph-name="uni2116" unicode="&#x2116;" d="M844 452Q917 452 961.50 408Q1006 364 1006 291Q1006 217 961.50 173Q917 129 843 129Q769 129 724 173.50Q679 218 679 291Q679 364 724.50 408Q770 452 844 452M69 0L69 694L228 694L471 255L471 694L621 694L621 0L465 0L220 440L220 0L69 0M999 98L999 0L698 0L698 98L999 98M778 291Q778 203 843 203Q873 203 890.50 225.50Q908 248 908 291Q908 333 890 355.50Q872 378 842 378Q813 378 795.50 355.50Q778 333 778 291Z"  horiz-adv-x="1046" vert-adv-y="1000"  />

      
      <glyph glyph-name="uni2122" unicode="&#x2122;" d="M216 356L216 644L107 644L107 712L407 712L407 644L300 644L300 356L216 356M454 356L454 712L574 712L661 467L748 712L866 712L866 356L789 356L789 646L688 356L632 356L531 646L531 356L454 356Z"  horiz-adv-x="1000" vert-adv-y="1000"  />

      
      <glyph glyph-name="uni2206" unicode="&#x2206;" d="M390 694L674 0L9 0L281 694L390 694M334 553L166 104L512 104L334 553Z"  horiz-adv-x="682" vert-adv-y="1000"  />

      
      <glyph glyph-name="uni221A" unicode="&#x221A;" d="M583 786L371-214L240-214L86 105L37 82L-3 167L155 232L287-49L458 786L583 786Z"  horiz-adv-x="600" vert-adv-y="1000"  />

      
      <glyph glyph-name="uni221E" unicode="&#x221E;" d="M761 262Q761 183 715.50 133.50Q670 84 596 84Q566 84 539 92.50Q512 101 486.50 119.50Q461 138 445 153Q429 168 403 195Q375 167 368.50 160.50Q362 154 337.50 133Q313 112 298.50 106Q284 100 260 92.50Q236 85 211 85Q137 85 90.50 133.50Q44 182 44 260Q44 338 89.50 387Q135 436 208 436Q266 436 310.50 405Q355 374 403 318Q437 356 458.50 377Q480 398 518 417.50Q556 437 596 437Q669 437 715 388Q761 339 761 262M667 259Q667 294 647 315.50Q627 337 595 337Q547 337 469 257Q493 234 508.50 221Q524 208 549 195.50Q574 183 597 183Q629 183 648 204Q667 225 667 259M337 258Q257 336 208 336Q178 336 158 314.50Q138 293 138 259Q138 225 158 204.50Q178 184 211 184Q242 184 276 205.50Q310 227 337 258Z"  horiz-adv-x="806" vert-adv-y="1000"  />

      
      <glyph glyph-name="uni2248" unicode="&#x2248;" d="M419 70Q398 70 367 77Q336 84 315.50 91Q295 98 256.50 112Q218 126 208 129Q178 139 163 139Q115 139 101 69L26 69Q32 142 67.50 193.50Q103 245 174 245Q190 245 209.50 241Q229 237 241 233.50Q253 230 276.50 222Q300 214 308 211Q407 178 434 178Q483 178 495 245L570 245Q552 70 419 70M421 273Q400 273 369 280Q338 287 317.50 294Q297 301 258.50 315Q220 329 210 332Q180 342 165 342Q117 342 103 272L28 272Q34 345 69.50 396.50Q105 448 176 448Q192 448 211.50 444Q231 440 243 436.50Q255 433 278.50 425Q302 417 310 414Q409 381 436 381Q485 381 497 448L572 448Q554 273 421 273Z"  horiz-adv-x="600" vert-adv-y="1000"  />

      
      <glyph glyph-name="uni2260" unicode="&#x2260;" d="M502 530L446 420L560 420L560 308L389 308L339 211L560 211L560 99L282 99L200-64L96-12L153 99L40 99L40 211L210 211L259 308L40 308L40 420L316 420L398 582L502 530Z"  horiz-adv-x="600" vert-adv-y="1000"  />

      
      <glyph glyph-name="uni2264" unicode="&#x2264;" d="M40 273L40 375L559 554L559 437L198 324L559 217L559 100L40 273M40 76L559 76L559-35L40-35L40 76Z"  horiz-adv-x="600" vert-adv-y="1000"  />

      
      <glyph glyph-name="uni2265" unicode="&#x2265;" d="M559 273L40 100L40 217L400 324L40 437L40 554L559 375L559 273M559 76L559-35L40-35L40 76L559 76Z"  horiz-adv-x="600" vert-adv-y="1000"  />

      
      <glyph glyph-name="uniE000" unicode="&#xE000;" d="M354 336L354 209L53 209L53 336L354 336Z"  horiz-adv-x="407" vert-adv-y="1000"  />

      

  </font>
</defs>
</svg>
