<svg>
<symbol id="challenge-icon-reverse" viewBox="0 0 32 32">
<path fill="#242a37" style="fill: var(--color2, #242a37)" d="M26.435 16c0 5.763-4.672 10.435-10.435 10.435s-10.435-4.672-10.435-10.435c0-5.763 4.672-10.435 10.435-10.435s10.435 4.672 10.435 10.435z"></path>
<path d="M20.584 11.833h-1.25c0.005-0.138 0.007-0.278 0.007-0.418 0-0.158-0.128-0.285-0.285-0.285h-6.112c-0.158 0-0.285 0.128-0.285 0.285 0 0.14 0.002 0.279 0.007 0.418h-1.25c-0.158 0-0.285 0.128-0.285 0.285 0 1.278 0.334 2.485 0.941 3.396 0.6 0.901 1.399 1.418 2.261 1.469 0.196 0.213 0.402 0.387 0.618 0.519v1.268h-0.479c-0.579 0-1.049 0.471-1.049 1.049v0.479h-0.020c-0.158 0-0.285 0.128-0.285 0.285s0.128 0.285 0.285 0.285h5.195c0.158 0 0.285-0.128 0.285-0.285s-0.128-0.285-0.285-0.285h-0.020v-0.479c0-0.579-0.471-1.049-1.049-1.049h-0.479v-1.268c0.215-0.132 0.422-0.306 0.618-0.519 0.863-0.050 1.662-0.567 2.262-1.469 0.607-0.912 0.941-2.118 0.941-3.396 0-0.158-0.128-0.285-0.285-0.285zM12.546 15.199c-0.5-0.752-0.794-1.736-0.839-2.795h0.99c0.103 1.302 0.409 2.506 0.886 3.461 0.076 0.152 0.156 0.296 0.238 0.431-0.475-0.179-0.914-0.554-1.276-1.098zM19.454 15.199c-0.362 0.544-0.801 0.919-1.276 1.098 0.083-0.136 0.162-0.279 0.238-0.431 0.478-0.956 0.783-2.159 0.886-3.461h0.99c-0.045 1.059-0.339 2.043-0.839 2.795z"></path>
</symbol>
</svg>
