<svg width="22" height="22" viewBox="0 0 22 17" fill="none" xmlns="http://www.w3.org/2000/svg">
<path d="M18.2345 7.91487L6.86781 7.91487C6.32598 7.91487 5.88671 8.35414 5.88671 8.89596C5.88671 9.43779 6.32598 9.87706 6.86781 9.87706L18.2345 9.87706L16.966 11.1455C16.5828 11.5286 16.5828 12.1498 16.966 12.533C17.349 12.9161 17.9702 12.9161 18.3534 12.5329L21.2965 9.58986C21.3193 9.56716 21.3407 9.54342 21.3611 9.51857C21.3661 9.51248 21.3704 9.50594 21.3752 9.49973C21.3902 9.4807 21.4049 9.4616 21.4184 9.44145C21.4223 9.43557 21.4255 9.42935 21.4294 9.4234C21.4428 9.40234 21.456 9.38108 21.4679 9.35891C21.4702 9.35453 21.4721 9.34988 21.4744 9.3455C21.4868 9.3215 21.4987 9.29717 21.5091 9.27205C21.5104 9.26898 21.5113 9.26571 21.5126 9.26257C21.5232 9.23614 21.5331 9.20939 21.5415 9.18185C21.5426 9.17839 21.5432 9.17479 21.5441 9.17126C21.5521 9.14425 21.5593 9.11697 21.5649 9.08904C21.5665 9.08074 21.5672 9.07217 21.5687 9.0638C21.5728 9.04064 21.5768 9.01749 21.5791 8.99388C21.5825 8.9615 21.5841 8.9288 21.5841 8.89596C21.5841 8.86313 21.5825 8.83043 21.5791 8.79798C21.5768 8.77405 21.5727 8.7507 21.5687 8.72735C21.5672 8.71923 21.5665 8.71093 21.5649 8.70288C21.5593 8.67469 21.5521 8.64716 21.5441 8.61988C21.5431 8.61668 21.5425 8.61328 21.5415 8.61007C21.5331 8.58241 21.5232 8.55539 21.5124 8.52871C21.5112 8.52583 21.5104 8.52275 21.5092 8.51988C21.4987 8.49456 21.4867 8.4701 21.4742 8.44597C21.4721 8.44172 21.4702 8.43727 21.468 8.43302C21.456 8.41071 21.4427 8.38926 21.429 8.368C21.4254 8.36225 21.4222 8.35616 21.4184 8.35054C21.4049 8.33033 21.39 8.3111 21.3751 8.292C21.3704 8.28585 21.3661 8.27938 21.3612 8.27336C21.3407 8.24857 21.3193 8.22476 21.2966 8.20207L18.3535 5.25898C18.1619 5.06734 17.9108 4.97158 17.6597 4.97158C17.4086 4.97158 17.1575 5.06734 16.966 5.25898C16.5829 5.64213 16.5829 6.26329 16.966 6.64644L18.2345 7.91487Z" fill="#3E4E6C"/>
<path d="M8.02546 16.9219C10.7035 16.9219 13.195 15.5933 14.6906 13.3682C14.9927 12.9185 14.8732 12.3089 14.4235 12.0067C13.9738 11.7045 13.3642 11.8239 13.0619 12.2737C11.9317 13.9556 10.0489 14.9598 8.02546 14.9598C4.68221 14.9597 1.96222 12.2398 1.96222 8.89645C1.96222 5.55314 4.68221 2.83322 8.02545 2.83322C10.0429 2.83322 11.9226 3.83282 13.0538 5.50709C13.3572 5.95611 13.9669 6.0741 14.416 5.77081C14.8649 5.46746 14.9831 4.85761 14.6797 4.40866C13.1831 2.19348 10.6956 0.871025 8.02545 0.871026C3.60026 0.871026 2.84754e-05 4.47119 2.88623e-05 8.89645C2.92492e-05 13.3217 3.60026 16.9219 8.02546 16.9219Z" fill="#3E4E6C"/>
</svg>
